<svg xmlns="http://www.w3.org/2000/svg" viewBox="0 0 508 116.2"><defs/><path d="M79 1h21v17H79zM69 27v16h12v31H69v17h41V74h-10l-1-48-30 1zm41 1l22 62h20l22-63h-19l-13 38-12-38h-20v1zm138-1v64h17V54s3-6 9-8l9-3V25s-12 1-17 9h-1v-7zm98 0v16h12v31h-12v17h39V74h-9V27h-30zm8-26h22v17h-22zm-36 25l15 3c1 1 4 14-4 13l-14-1c-8 0-7 6-1 8 8 2 20 8 22 14s2 22-10 25-30 4-34-1c-3-4 1-15 1-16s9 6 18 6 9-9 1-11c-10-2-22-8-22-21 0-12 8-17 28-19zM425 0a48 48 0 0113 2c6 2-2 14-5 15h-9l-2 5c0 4 1 4 2 5h11v17h-13v30h13v17h-42V74h10V43h-10V27h10s0-14 2-16 3-9 20-11zm19 27h18l13 37 13-37h20l-26 69s-11 21-22 20c0 0-13 2-13-8 0-4 2-7 5-9h9s9-4 0-22-17-50-17-50zm-235-1s31 0 27 38h-41c-1 0 9 19 32 8 0 0 3-1 4 5s1 10-1 10c0 0-2 4-21 4s-30-9-32-32c-2-22 18-34 32-33z"/><path fill="#fcfcfc" d="M196 50h22s-2-10-11-10-11 10-11 10z"/><path d="M39 1v24S-1 24 0 60c0 32 20 31 23 31s9 1 16-8h1s0 7 3 7h14V1z"/><path fill="#fff" d="M32 43s-13 1-13 17 8 15 8 15a14 14 0 0011-10s3-24-6-22z"/></svg>