<svg xmlns="http://www.w3.org/2000/svg" viewBox="0 0 388 299"><path fill="#fa1ea4" d="M43 75L0 147v8l40 69h88l43-76H88L43 75z"/><path fill="#8a88ce" d="M43 75L86 0h87l42 75H43z"/><path fill="#732e9d" d="M43 75h84l41 73H88L43 75z"/><path fill="#3f37ab" d="M166 148h5l44-73h-89l40 73z"/><path fill="#732e9d" d="M214 76h87l42 73-44 74h-4l-40-72-85-1 44-74z"/><path fill="#a21a99" d="M128 224l42-75 85 2 40 72-167 1z"/><path fill="#fa80c9" d="M125 224l45 75 90-1-41-75-93 1"/><path fill="#aa4eac" d="M218 223h81l-43 68-38-68z"/><path fill="#ae85c3" d="M343 149h2l43 74-42 76-86-1-4-7 87-142z"/></svg>