<svg xmlns="http://www.w3.org/2000/svg" class="adventurer" viewBox="0 0 533 533"><defs><clipPath id="a"><path d="M0 400h400V0H0z"/></clipPath><clipPath id="b"><path d="M97 16h216V0H97z"/></clipPath><clipPath id="c"><path d="M0 400h400V0H0z"/></clipPath></defs><g clip-path="url(#a)" transform="matrix(1.33333 0 0 -1.33333 0 533)"><g clip-path="url(#b)" opacity=".1"><path fill-rule="evenodd" d="M313 8l-111 8-105-6L197 0z"/></g></g><path fill="#DFBDA5" fill-rule="evenodd" d="M309 506l1 15h21l7-4 6-6-18-18h-9z"/><path fill="#C3987B" fill-rule="evenodd" d="M310 521l-1-12 13 12 30-16 13 16z"/><path fill="#DFBDA5" fill-rule="evenodd" d="M233 493l9 11 3 19h-16l-8-7-8-10 6-11z"/><path fill="#C3987B" fill-rule="evenodd" d="M214 506l-17 17h48l-2-13-9 13z"/><path fill="#8B6651" fill-rule="evenodd" d="M321 488l-7 1-6 3 1 14 17-13zm-81 2l-6-3h-10l-5 8 23 9z"/><path fill="#bf8f00" fill-rule="evenodd" d="M327 379l-32 12-30 18 19 51 30-6 28-11z"/><path fill="#e5c82e" fill-rule="evenodd" d="M284 460l7 19 26-16 25-20z"/><path fill="#ccad14" fill-rule="evenodd" d="M291 479l51-36 10 36-30 3z"/><path fill="#e5c82e" fill-rule="evenodd" d="M291 479l7 16 54-16z"/><path fill="#bf8f00" fill-rule="evenodd" d="M265 409l-4 49-31-3-36-8 6-65 38 13z"/><path fill="#e5c82e" fill-rule="evenodd" d="M194 447l34 19 31 13 2-21z"/><path fill="#ccad14" fill-rule="evenodd" d="M194 447l-3 32 37 2 31-2z"/><path fill="#e5c82e" fill-rule="evenodd" d="M259 479h-68l66 15z"/><path fill="#474747" fill-rule="evenodd" d="M295 229l14 4 7 8 10-2 19 20-5 17-14 21-120 3-15-12-11-15 27-34 11-1 5-6 15-6 24 17z"/><path fill="#856400" fill-rule="evenodd" d="M327 379l-62 30-65-27 6-82 10-12 10-6 80-4 10 5 10 14z"/><path fill="#DFBDA5" fill-rule="evenodd" d="M206 300l-33 26-9-34 16-19zm166-19l-27-22-19 38 19 6 18-6z"/><path fill="#e5c82e" fill-rule="evenodd" d="M159 270l-66 10-21 56 30 47 60 21 59-13-5-56-43-9z" class="an1"/><path fill="#C3987B" fill-rule="evenodd" d="M144 299l-8 7-10 6 15 23 16-13-9-13z" class="an1"/><path fill="#8B6651" fill-rule="evenodd" d="M152 326l-6-16-20 2 18-13 13 23z" class="an1"/><path fill="#DFBDA5" fill-rule="evenodd" d="M146 310l-20 2-6 22 7 3z" class="an1"/><path fill="#474747" fill-rule="evenodd" d="M115 300l-13-5-5 13 13 5z" class="an1"/><path fill="#802d00" fill-rule="evenodd" d="M106 322l-12-4-5 12 13 5z" class="an1"/><path fill="#a84000" fill-rule="evenodd" d="M115 347l-13-4-5 12 13 5z" class="an1"/><path fill="#cc4e00" fill-rule="evenodd" d="M135 364l-13-4-4 12 12 5z" class="an1"/><path fill="#ed8600" fill-rule="evenodd" d="M158 373l-13-5-4 13 12 4z" class="an1"/><path fill="#ff9b01" fill-rule="evenodd" d="M184 373l-13-4-4 12 12 5z" class="an1"/><path fill="#ffd557" fill-rule="evenodd" d="M207 360l-13-4-4 12 12 5z" class="an1"/><path fill="#bf8f00" fill-rule="evenodd" d="M326 239v58l-20-19 3-45zm-103-7l3 50-20 18 1-61z"/><path fill="#9e7700" fill-rule="evenodd" d="M293 353h-54v-55h54zm33-26l-6-5-6 11 8-1 4 10z"/><path fill="#ccad14" fill-rule="evenodd" d="M291 359l-9 7 1 8 12 8 4-18zm-52-12l14-5-1-11 7-3-4-11-4 1v6l-9-1-3 8-1 7z"/><path fill="#9e7700" fill-rule="evenodd" d="M267 363l-9-2 2 9 6-1z"/><path fill="#b58b00" fill-rule="evenodd" d="M239 331l-11 2 5 14h6z"/><path fill="#8B6651" fill-rule="evenodd" d="M146 310l-5 25-6-9z" class="an1"/><path fill="#ccae2d" fill-rule="evenodd" d="M135 326l-8 11 14-2z" class="an1"/><path fill="#C3987B" fill-rule="evenodd" d="M345 303l47-40 16-1-3 18-26 34z"/><path fill="#8B6651" fill-rule="evenodd" d="M392 263l13 17 12-4-9-24z" class="an2"/><path fill="#C3987B" fill-rule="evenodd" d="M428 245l15 21-4 4-21-8-16-19z" class="an2"/><path fill="#474747" fill-rule="evenodd" d="M351 204l62 67 6-5 4-8z" class="an2"/><path fill="#bf8f00" fill-rule="evenodd" d="M437 288l2 10 17 3-4-9-8-2-4-4z" class="an2"/><path fill="#856400" fill-rule="evenodd" d="M439 270l5 20-18-4 6-9z" class="an2"/><path fill="#8f8f8f" fill-rule="evenodd" d="M405 262l21 24 13-16-16-12z" class="an2"/><path fill="#DFBDA5" fill-rule="evenodd" d="M400 273l5-11 15 2 3-6-21-15-10 20z" class="an2"/><path fill="#ccad14" fill-rule="evenodd" d="M178 123l72-18 76-22-1-11-6-16-72 33z"/><path fill="#e5c82e" fill-rule="evenodd" d="M319 56l-77 19-78 25 4 10 10 13z"/><path fill="#755800" fill-rule="evenodd" d="M233 59l-7 23 31-8zm86-3l12 4 13 10-15 25-4-7 1-5z"/><path fill="#ccad14" fill-rule="evenodd" d="M319 56l-2-12 3-17 16 24 8 19z"/><path fill="#bf8f00" fill-rule="evenodd" d="M320 27l41 26-17 17z"/><path fill="#856400" fill-rule="evenodd" d="M319 56l1-29 1-15-30 31 1 21z"/><path fill="#bf8f00" d="M272 15l-2 12 12 11 11 6 19-22-34-22z"/><path fill="#ccad14" fill-rule="evenodd" d="M293 44l-23-17-8 19-5 28 35-10z"/><path fill="#ccad14" d="M230 25l26 3 14-1 8-27z"/><path fill="#bf8f00" fill-rule="evenodd" d="M270 27l-40-2 9 19 18 30z"/><path fill="#755800" fill-rule="evenodd" d="M158 132l29 7-4-10-5-6-10 2z"/><path fill="#ccad14" fill-rule="evenodd" d="M257 74l-22-13-14-6-9-6 4-14 6-11 3-9 5 10z"/><path fill="#bf8f00" fill-rule="evenodd" d="M212 49l-13-4-12-10-3-14 38 3z"/><path fill="#856400" fill-rule="evenodd" d="M212 49l-25-14-13 17 8 17 15 22 12-26zm-59 55l-6 34 31-15-14-23h-5z"/><path fill="#bf8f00" fill-rule="evenodd" d="M174 52l-12 13-4 10 14 7 25 9z"/><path fill="#ccad14" fill-rule="evenodd" d="M174 52l-42 14 26 9zm-16 23l-23 34 29-9 33-9z"/><path fill="#bf8f00" fill-rule="evenodd" d="M212 49l-15 42 17 22 12-31 9-21z"/><path fill="#DFBDA5" fill-rule="evenodd" d="M326 83l25 104-46 17-6 11-4 14-20 13-17 18-28-53-20-29-15-27-4-13-13-15z"/><path fill="#8B6651" fill-rule="evenodd" d="M223 162l-8-13-12 7 11 5z"/><path fill="#C3987B" fill-rule="evenodd" d="M236 107l41 107h16l2 15-37 31-25-43-3-9-4-4-16-26 24-15-8-15 14-8-17-29zm24 16h15l16 22-3-26-9-13zm37-23l7 34 6-24 12-7z"/><path fill="#856400" fill-rule="evenodd" d="M279 106l-22 8 3 9zm18-6l23-6 2 9z"/><path fill="#755800" fill-rule="evenodd" d="M286 169l18-12 20 1-16 11z"/><path fill="#b58b00" fill-rule="evenodd" d="M329 155l-21 13-29 1 31 8z"/><path fill="#856400" fill-rule="evenodd" d="M223 111l17 29-14 8-6-11-25 14-17-28z"/><path fill="#8B6651" fill-rule="evenodd" d="M305 204l-39 13 29 12zm-71-32l-6 23-12-14zm18 17l-19 28-7-13 9-9z"/><path fill="#755800" fill-rule="evenodd" d="M220 180l8 15 15-9-9-14zm17-18l15 27-26 15-16-26z"/><path fill="#b58b00" fill-rule="evenodd" d="M220 157l-6 4 12 20 6-4z"/><path fill="#E8CAB6" fill-rule="evenodd" d="M297 100l-18 6 12 39 18-6z"/><path fill="#8B6651" fill-rule="evenodd" d="M309 139l-6 12-12-6z"/><g clip-path="url(#c)" transform="matrix(1.33333 0 0 -1.33333 0 533)"><path fill="#2b2b2b" fill-rule="evenodd" d="M211 300a4 4 0 10-9 0 4 4 0 009 0m29 9a4 4 0 10-9 0 4 4 0 009 0"/></g></svg>