<svg xmlns="http://www.w3.org/2000/svg" class="advocate" viewBox="0 0 533 533"><defs><clipPath id="a"><path d="M0 400h400V0H0z"/></clipPath><clipPath id="b"><path d="M75 23h252V0H75z"/></clipPath><clipPath id="c"><path d="M0 400h400V0H0z"/></clipPath></defs><g clip-path="url(#a)" transform="matrix(1.33333 0 0 -1.33333 0 533)"><g clip-path="url(#b)" opacity=".1"><path fill="#2b2b2b" d="M75 11l99-11 153 12-145 11z"/></g></g><path fill="#8B6651" d="M412 205l12-10 10-16-1-38-23 23-7 26z" class="an1"/><path fill="#36795d" d="M472 71l-3 2-16 28-6 9 1 19-14 10 2 7-9 22-9 5-10 22h16l17-48 16-14-1-23z" class="an1"/><path fill="#53af8a" d="M428 172l8-26-2-7-16 34zm41-99l3-2h-5l-20 39 8-5z" class="an1"/><path fill="#DFBDA5" d="M399 173l6-20 25-17 4 3-6 11-10 9v14l-4 10-11 7z" class="an1"/><path fill="#C3987B" d="M449 140l-2 43-23 12 10-56z" class="an1"/><path fill="#35785D" d="M269 482v18l23-7 13-10 4-16zm-96-17l-7 35h19l19-12 4-9z"/><path fill="#53af8a" d="M305 483l-36 17v9l30 3 37-3z"/><path fill="#36795d" d="M336 518h-67v-9h67z"/><path fill="#53af8a" d="M204 488l8 26-23 5-26-5 3-14z"/><path fill="#36795d" d="M212 523h-49v-9h49z"/><path fill="#C3987B" d="M132 346l-14 15-6 7 8 7 18-25z"/><path fill="#DFBDA5" d="M118 320l-17 7-8 15 10 21 9 5 14-14z"/><path fill="#8B6651" d="M133 345l-26-31-6 13 25 27 6-8z"/><path fill="#C3987B" d="M112 368l-19-26-7 25 12 18 14-17z"/><path fill="#738d56" d="M207 230l-14-2-34-4 46 38 4 11 21 43 28-28z"/><path fill="#44612d" d="M189 280l15 27 16 7 12-17-23-41z"/><path fill="#738d56" d="M336 265l-69 101-35-69-28 10-52 146 71 44 118-47z"/><path fill="#98c26c" d="M311 272l-23 41-12-11-18-14-26 9-8 190 105-223-17 6zm-152-48l-54 72 65 10 25-63z"/><path fill="#738d56" d="M105 296l26 52 14-5 48-97z"/><path fill="#5a753d" d="M195 243l-64 99 23-2 13-8 42-76z"/><path fill="#36795d" d="M126 354l35-12 6-10-36 10-26-46-7 8z"/><path fill="#8f8f8e" d="M351 123l-37 8 3 18 3 23 19-13z"/><path fill="#dddddc" d="M310 106l10 28 31-11z"/><path fill="#8f8f8e" d="M324 195l8 6 15 3 13-28-21 7z"/><path fill="#c4c3c3" d="M339 159h-25l10 36 36-19zm-154 24l-30 8-9 24 18 3 24-20z"/><path fill="#8f8f8e" d="M181 162l-42 11 16 18 29 6 8-14z"/><path fill="#dddddc" d="M181 131l-8 2-6-8-28 48 43-6z"/><path fill="#8f8f8e" d="M205 203l-59 12 13 9 51-8z"/><path fill="#8e8e8e" d="M315 106z"/><path fill="#738d56" d="M417 232l-25-51-22 27-24 50z" class="an1"/><path fill="#98c26c" d="M324 195l-3 30 33 26 16-43z" class="an1"/><path fill="#5a753d" d="M329 264l46 7 28-20 8-23-57 23-25-26-39-40z" class="an1"/><path fill="#36795d" d="M399 173l-7 8 19 47-36 43 11 1 37-41z" class="an1"/><path fill="#728c56" d="M312 270l17-6-8-17z"/><path fill="#53af8a" d="M258 288l3 2zm0 0l-65-41z"/><path fill="#35785d" d="M315 247l-9 23-1 2 7-2 9-23-3-7z"/><path fill="#53af8a" d="M248 207l-4 18-40 18 61 43 40-14z"/><path fill="#73c6a4" d="M193 240l11 3 47-18-67-28-20 21z"/><path fill="#2b614b" d="M288 180z"/><path fill="#36795d" d="M261 279l-97-61-5 6 99 64 37 48 20-64zm-13-72l-22-15-41-9-1 14 67 28z"/><path fill="#DFBDA5" d="M327 175L305 46l-37-29-23 20-49-3-8 7 17 35 30 124 45-12z"/><path fill="#ecebeb" d="M268 25l37 21-22-30-18-5-4 6z"/><path fill="#dddddc" d="M228 0l1 28 20 18 19-21-3-14z"/><path fill="#c4c3c3" d="M228 0l-36 28 1 4 3 3 53 11z"/><path fill="#8f8f8e" d="M243 66l2 5-19 14-3-6zm28-5l2 7 20 3 1-4z"/><path fill="#C3987B" d="M226 85l47 49-2-41-18-17 15-3 8 21 7 12 10-35-20-3-5 5-15 3-8-5zm-17-29l-13-22-22 37 11 12 3 34-10-11-7 11-12 4 9 29 11-3 6 2-3 18 3 16 44 17h8z"/><path fill="#8B6651" d="M179 147l3 20 10-23zm78 47l-28 6 21 8zm-90-69l17 11-5-16z"/><path fill="#36795d" d="M224 487l-72-34-4 11 75 33 118-36v-11z"/><path fill="#c4c3c3" d="M273 134l-32 29 20 116 36 34 3 5-1 5-4 13 20 14-13-142-19-72z"/><path fill="#ecebeb" d="M319 310l17-45-19-116-29-18-5 5 32 214 11-21-5-9-3-5z"/><path fill="#44612d" d="M321 320l-22 3-2-10 22-3z"/><path fill="#8B6651" d="M298 153l-31 5-1-6 30-5z"/><g clip-path="url(#c)" transform="matrix(1.33333 0 0 -1.33333 0 533)"><path fill="#2b2b2b" d="M188 324a4 4 0 10-9 0 4 4 0 009 0m33 7a4 4 0 10-9 0 4 4 0 009 0"/><path fill="#E8CAB6" d="M201 345l8-11 7-32-11-3-6 32-9 12z"/><path fill="#8f8f8e" d="M114 356l14-43 4 1 9-5 3 34-10 6 13 26-3 4zm102-54l-11-3 8-4z"/></g></svg>