<svg xmlns="http://www.w3.org/2000/svg" class="architect" viewBox="0 0 533 533"><defs><clipPath id="a"><path d="M0 400h400V0H0z"/></clipPath><clipPath id="b"><path d="M40 40h326V0H40z"/></clipPath><clipPath id="c"><path d="M0 400h400V0H0z"/></clipPath><clipPath id="d"><path d="M159 68h92V40h-92z"/></clipPath><clipPath id="e"><path d="M251 76h75V47h-75z"/></clipPath><clipPath id="f"><path d="M0 400h400V0H0z"/></clipPath><clipPath id="g"><path d="M286 90h33V80h-33z"/></clipPath><clipPath id="h"><path d="M0 400h400V0H0z"/></clipPath><clipPath id="i"><path d="M250 81h27v-8h-27z"/></clipPath><clipPath id="j"><path d="M0 400h400V0H0z"/></clipPath><clipPath id="k"><path d="M207 98h32V85h-32z"/></clipPath><clipPath id="l"><path d="M0 400h400V0H0z"/></clipPath><clipPath id="m"><path d="M148 228h43v-24h-43z"/></clipPath><clipPath id="n"><path d="M0 400h400V0H0z"/></clipPath></defs><g clip-path="url(#a)" transform="matrix(1.33333 0 0 -1.33333 0 533)"><g clip-path="url(#b)" opacity=".1"><path fill-rule="evenodd" d="M366 20l-40 16-174 4L40 16 140 0z"/></g></g><path fill="#4F5253" fill-rule="evenodd" d="M380 465l3 30h20l1-27zm-141 0l3 30h21l5-27z"/><path fill="#858686" fill-rule="evenodd" d="M244 504l4-41-39 4 2 39z"/><path fill="#734c5f" fill-rule="evenodd" d="M118 345l14-95-31-18-25 69z"/><path fill="#543042" fill-rule="evenodd" d="M76 301l46-2 5 28-9 29z"/><path fill="#734c5f" fill-rule="evenodd" d="M272 248l19 61-4 23-26 23-21-66 6-59z" class="an1"/><path fill="#96637c" fill-rule="evenodd" d="M273 280l-12 75 51-20-15-53-10-7z" class="an1"/><path fill="#96637c" fill-rule="evenodd" d="M197 262l26-38 30 10 8 121-74 9-69-8 8-104 16-13 8-21z"/><path fill="#594265" fill-rule="evenodd" d="M226 248l47 3-5-16-43-5z"/><path fill="#858686" fill-rule="evenodd" d="M434 506l1-38-36-5v43z"/><path fill="#858686" fill-rule="evenodd" d="M435 472v-19l-105-43-120 34 1 28z"/><path fill="#c4c4c3" fill-rule="evenodd" d="M425 453l-207-6 115-26z"/><g clip-path="url(#c)" transform="matrix(1.33333 0 0 -1.33333 0 533)"><g clip-path="url(#d)" opacity=".1"><path fill-rule="evenodd" d="M251 68l-92-28 6 11 44 15z"/></g><g clip-path="url(#e)" opacity=".1"><path fill="#2b2a29" fill-rule="evenodd" d="M251 76v-8l75-21v13z"/></g></g><path fill="#CECECD" fill-rule="evenodd" d="M220 466l115-23 6-14-8-14-110 13z"/><path fill="#a3a3a3" fill-rule="evenodd" d="M333 421l-110 7 7-53 32 8 66 17 5 11z"/><path fill="#C4C4C4" fill-rule="evenodd" d="M328 400l5 21 43 5 49-12 15-39z"/><path fill="#ededed" fill-rule="evenodd" d="M333 421l2 22 130 14-40-43z"/><g clip-path="url(#f)" transform="matrix(1.33333 0 0 -1.33333 0 533)"><g clip-path="url(#g)" opacity=".1"><path fill-rule="evenodd" d="M319 90l-13-10-20 7z"/></g></g><path fill="#9075a0" fill-rule="evenodd" d="M402 375l-26 14 29 15z"/><path fill="#795d88" fill-rule="evenodd" d="M408 421h-6v-46h6z"/><g clip-path="url(#h)" transform="matrix(1.33333 0 0 -1.33333 0 533)"><g clip-path="url(#i)" opacity=".1"><path fill-rule="evenodd" d="M277 81l-15-8-12 7z"/></g></g><path fill="#9075a0" fill-rule="evenodd" d="M350 384l-22 16 24 13z"/><path fill="#795d88" fill-rule="evenodd" d="M355 431h-5v-47h5z"/><g clip-path="url(#j)" transform="matrix(1.33333 0 0 -1.33333 0 533)"><g clip-path="url(#k)" opacity=".1"><path fill-rule="evenodd" d="M239 90l-15-5-17 13z"/></g></g><path fill="#9075a0" fill-rule="evenodd" d="M299 368l-24 18 26 11z"/><path fill="#795d88" fill-rule="evenodd" d="M305 415h-6v-47h6z"/><path fill="#734c5f" fill-rule="evenodd" d="M262 383l-75 30v43l18 9 27-22z"/><path fill="#543042" fill-rule="evenodd" d="M232 443l-45 13-22 15 16 16h17l15-7z"/><path fill="#96637c" fill-rule="evenodd" d="M187 456l6-36-25-22-51-23 14 74 29 18z"/><path fill="#543042" fill-rule="evenodd" d="M262 383l-69 37-76-45h81z"/><path fill="#734d61" fill-rule="evenodd" d="M131 449l56 7-6 31-21 5-20-1z"/><path fill="#795d88" fill-rule="evenodd" d="M180 504l26 3 38-3-31-24-32 7z"/><path fill="#594265" fill-rule="evenodd" d="M244 513h-64v-9h64z"/><path fill="#9075a0" fill-rule="evenodd" d="M181 487l13 26-29 3-29-3 4-22z"/><path fill="#594265" fill-rule="evenodd" d="M194 523h-58v-10h58z"/><path fill="#734c5f" fill-rule="evenodd" d="M227 316l8 39-83 1 8-29 16-46 21-19 18 19z"/><path fill="#594265" fill-rule="evenodd" d="M170 237l-56 19-13-24 53-15z"/><path fill="#b3889d" fill-rule="evenodd" d="M154 217l6 110 37-65zM197 262l30 54-2-86zm3 32l5 10-9 6-8-10zm0 30l-10 6 7 10 9-6z"/><path fill="#594265" fill-rule="evenodd" d="M118 356h60l20 5 20-6h43l1 28-45-2-15-3-24 1-61-4z"/><path fill="#b3889d" fill-rule="evenodd" d="M208 373h-22l1-9 21-1zm10-18l-40 1v23l39 2z"/><g clip-path="url(#l)" transform="matrix(1.33333 0 0 -1.33333 0 533)"><g clip-path="url(#m)" opacity=".1"><path fill-rule="evenodd" d="M148 204l43 20-22 4z"/></g></g><path fill="#594165" fill-rule="evenodd" d="M135 152l15-4 23 18-15 14-38 4z"/><path fill="#DFBDA5" fill-rule="evenodd" d="M319 98l-8 35-33 106-53-9-28 32-33-53 14-58 10-4 5-27-2-41 46-24 44 26 9-24z"/><path fill="#C3987B" fill-rule="evenodd" d="M193 79l26 51-6 102-16 30-43-45 4-37 4-7v-8l-15-2v-36h23l8 21h8l6-28zM297 144l-78-14 21 21 11 36z"/><path fill="#8B6651" fill-rule="evenodd" d="M215 204l38 13 28-3-26-14z"/><path fill="#785d88" fill-rule="evenodd" d="M215 204l36-17 15 3 15 24z"/><path fill="#E8CAB6" fill-rule="evenodd" d="M262 138l-11 49 15 3 9-50z"/><path fill="#785d88" fill-rule="evenodd" d="M219 130l78 14 3-10-75-9z" class="an3"/><path fill="#594165" fill-rule="evenodd" d="M267 190l-10 5-6-8z"/><path fill="#8B6651" fill-rule="evenodd" d="M153 135h12l2 23zm72 95l-37-7 9 39zm-63-65l10 1-14 14z"/><path fill="#A688BA" fill-rule="evenodd" d="M316 98l9-15 19-13-33 63z"/><path fill="#9075a0" fill-rule="evenodd" d="M193 79l-27-15-44-14 8 65 38 6 31-1z"/><path fill="#785d88" fill-rule="evenodd" d="M316 98l-26-32-15-15-16-24 85 43zM193 79l47-17-27-23-35-13-56 24z"/><path fill="#9075a0" fill-rule="evenodd" d="M259 27L207 2l-29 24 62 36 44 26 6-22z"/><path fill="#785d88" fill-rule="evenodd" d="M199 120l-69-5 5 37 12 11 1-34 22 1 5 23 14-2z"/><g clip-path="url(#n)" transform="matrix(1.33333 0 0 -1.33333 0 533)"><path fill="#2b2b2b" fill-rule="evenodd" d="M217 279a5 5 0 10-9 0 5 5 0 009 0m-32 6a5 5 0 10-9 0 5 5 0 009 0"/><path fill="#8B6651" fill-rule="evenodd" d="M198 198l7-8 6-1 7 22-20-3z" class="an2"/><path fill="#C3987B" fill-rule="evenodd" d="M235 212l-12-24-18 2 13 21 5 5z" class="an2"/><path fill="#E8CAB6" fill-rule="evenodd" d="M195 223l17 8 23-19-17-1-14 3z" class="an2"/><path fill="#DFBDA5" fill-rule="evenodd" d="M218 211l-13-8-15 10 5 10z" class="an2"/></g></svg>