<svg xmlns="http://www.w3.org/2000/svg" class="campaigner" viewBox="0 0 533 533"><defs><clipPath id="a"><path d="M0 400h400V0H0z"/></clipPath><clipPath id="b"><path d="M65 26h258V0H65z"/></clipPath><clipPath id="c"><path d="M0 400h400V0H0z"/></clipPath><clipPath id="d"><path d="M217 49h19V29h-19z"/></clipPath><clipPath id="e"><path d="M121 44h23V31h-23z"/></clipPath><clipPath id="f"><path d="M0 400h400V0H0z"/></clipPath></defs><g clip-path="url(#a)" transform="matrix(1.33333 0 0 -1.33333 0 533)"><g clip-path="url(#b)" opacity=".1"><path fill-rule="evenodd" d="M323 15L186 26 65 14 186 0z"/></g></g><path fill="#4F5253" fill-rule="evenodd" d="M201 501l-35 14-6-13 5-23 10-4 16 5zm131-18l-13 25-27-14-3-15 25-11z"/><g clip-path="url(#c)" transform="matrix(1.33333 0 0 -1.33333 0 533)"><g clip-path="url(#d)" opacity=".2"><path fill-rule="evenodd" d="M236 49l-17-20-2 12 6 6z"/></g><g clip-path="url(#e)" opacity=".2"><path fill-rule="evenodd" d="M123 41l11 3 10-4-23-9z"/></g></g><path fill="#6F7173" fill-rule="evenodd" d="M315 504l-23-10 1 19 73 1v-20l-34-11zm-101 18v-21l-32-4-14 15-8-10-1 20z"/><path fill="#54b08b" fill-rule="evenodd" d="M296 346l32 97-23 22-27-3-12-36-23-15-31 51-21 13-33-15v-98l18-48z"/><path fill="#3f8f6f" fill-rule="evenodd" d="M287 353l33 96-12 7-38-85zm-24 40l31 68-16 1-35-51 3-40zm-38 3l-25 69-14-2 21-91zm-30-42l-19 111-12-5 5-83z"/><path fill="#36785d" fill-rule="evenodd" d="M328 443l-50 19 11 17 46-16zm-116 19l-54-2v19l42 2zm51-69l-20 18-18-15 21-35z"/><path fill="#DFBDA5" fill-rule="evenodd" d="M373 248l11-30 18 6 16 15-32 28z" class="an1"/><path fill="#C3987B" fill-rule="evenodd" d="M391 238l-11-30-9 1 2 39 9 10zm-7-20l28-29 17 17-11 33z" class="an1"/><path fill="#565656" fill-rule="evenodd" d="M90 316l53 35 15-28z"/><path fill="#c4c4c4" fill-rule="evenodd" d="M108 173l114 2-19 23-43 2z"/><path fill="#6F7173" fill-rule="evenodd" d="M161 191l-53-18-5 38v29l-6 22-7 54 87 12z"/><path fill="#565656" fill-rule="evenodd" d="M206 186l-45 5-2 20-8 114 80-17z"/><path fill="#9da1a2" fill-rule="evenodd" d="M103 211l14 8 19 4-8 53-31-14 3-24 4-10z"/><path fill="#c4c4c4" fill-rule="evenodd" d="M136 223l-36 15 3-27z"/><path fill="#728d56" fill-rule="evenodd" d="M279 221l19 59-2 66-33 47-17-22-21 25-39-54-28-4 5-55 40-85z"/><path fill="#565656" fill-rule="evenodd" d="M250 278l-23 63 19 15 21-14z"/><path fill="#484748" fill-rule="evenodd" d="M267 342l-40-1 19 30zm3-87l-20 23-19-26 21-3z"/><path fill="#5a753d" fill-rule="evenodd" d="M174 272v-40l-15-21-39 89 27-1 16-9z"/><path fill="#3f8f6f" fill-rule="evenodd" d="M293 218l29 24-6 17-18 21z" class="an2"/><path fill="#99c26d" fill-rule="evenodd" d="M322 242l37 31-7 14-35 6-19-13z" class="an2"/><path fill="#728d56" fill-rule="evenodd" d="M317 293l56-46 29 31-53 37z" class="an1"/><path fill="#99c26d" fill-rule="evenodd" d="M252 249l-20-35-29-16-5 77zm41-31l-33 7-8 24 46 31z"/><path fill="#3f8f6f" fill-rule="evenodd" d="M203 198l-44 13 15 61z"/><path fill="#5a753d" fill-rule="evenodd" d="M287 189l-21 17v32l27-20zm-75-31l-9 40 25 26-1-32z"/><path fill="#35785d" fill-rule="evenodd" d="M163 168l49-10 3-14-9-15-20 12z"/><path fill="#3f8f6f" fill-rule="evenodd" d="M371 74l-20 43-7 54 14-9 12-3 13-7-2-68-1-9z"/><path fill="#99c26d" fill-rule="evenodd" d="M358 116l12 43-26 12 4-16 9-5-3-12z"/><path fill="#DFBDA5" fill-rule="evenodd" d="M371 74l-34 124-50-9-25 40-10 20-11-35-35-85 65-59 67-33z"/><path fill="#8B6651" fill-rule="evenodd" d="M325 44l47 30-17-25-17-17-11 3z"/><path fill="#C3987B" fill-rule="evenodd" d="M313 130l-8-39-10-19 25-1 1 12zm19-45l6-10 22 11-34 30z"/><path fill="#8B6651" fill-rule="evenodd" d="M324 132l-7 6-4-8z"/><path fill="#C3987B" fill-rule="evenodd" d="M271 70l-24 111 20 17 10 16-11 24-14 11-24-25-16-66 3-14-9-15z"/><path fill="#E8CAB6" fill-rule="evenodd" d="M332 85l-8 47-11-2 8-47z"/><path fill="#8B6651" fill-rule="evenodd" d="M271 70l-24 38-23 15 24 10-36 25-6-29 24-26z"/><path fill="#3f8f6f" fill-rule="evenodd" d="M338 75l15-3 7 14zm-18-4l-11-7-14 8z"/><path fill="#728d56" fill-rule="evenodd" d="M341 157l-32 20-30-31z"/><path fill="#fff" fill-rule="evenodd" d="M333 157l-20 1-26-9 17 16 12 2z"/><path fill="#446125" fill-rule="evenodd" d="M341 157l-26-9-36-2 34 13z"/><path fill="#99c26d" fill-rule="evenodd" d="M246 92l2 41-52 5 13-15 28-1-2-23z"/><path fill="#8B6651" fill-rule="evenodd" d="M287 189l-58-12 48 37z"/><path fill="#3f8f6f" fill-rule="evenodd" d="M271 70l-75 25-51 34 18 39z"/><path fill="#3f8f6f" d="M141 72l125-16-46-56z"/><path fill="#3f8f6f" fill-rule="evenodd" d="M141 72l-33 31 37 26 3-34z"/><path fill="#72c9a6" d="M253 52l85-15V26L324 1 220 0z"/><path fill="#54b08b" d="M338 37l43 47 23-28-80-55z"/><path fill="#54b08b" fill-rule="evenodd" d="M338 37l-193 92-4-57z"/><path fill="#C3987B" fill-rule="evenodd" d="M186 342l9 12-26 23-11-15 6-17z"/><path fill="#99c26d" fill-rule="evenodd" d="M120 300l31 67 35-25-23-52z"/><g clip-path="url(#f)" transform="matrix(1.33333 0 0 -1.33333 0 533)"><path fill="#2b2b2b" fill-rule="evenodd" d="M264 322a5 5 0 10-10 0 5 5 0 0010 0m-33 7a5 5 0 10-10 0 5 5 0 0010 0"/></g></svg>