<svg xmlns="http://www.w3.org/2000/svg" class="commander" viewBox="0 0 533 533"><defs><clipPath id="a"><path d="M0 400h400V0H0z"/></clipPath><clipPath id="b"><path d="M74 27h211V-1H74z"/></clipPath><clipPath id="c"><path d="M0 400h400V0H0z"/></clipPath></defs><g clip-path="url(#a)" transform="matrix(1.33333 0 0 -1.33333 0 533)"><g clip-path="url(#b)" opacity=".1"><path fill="#2b2c2b" d="M74 16l95 11 116-14L156-1z"/></g></g><path fill="#C3987B" d="M197 449l-9 34-12 12-6-8-4-49 4-31z"/><path fill="#8B6651" d="M173 429l27 9-3 11-31-11z"/><path fill="#C3987B" d="M255 386l1 53-2 36-11 16-8-13-9-29z"/><path fill="#8B6651" d="M235 423l21 16-30 10-3-11z"/><path fill="#553043" d="M136 419l70-16 77 18-19-66-40-47-64 59-6 5z"/><path fill="#96637d" d="M200 438l-40-71 9-21 55-47 36 46-4 94z"/><path fill="#734e61" d="M166 438l-6-71 9-21 55-47 12 38-36 101z"/><path fill="#8B6651" d="M416 258l-12 9-9-5v-13z" class="an1"/><path fill="#C3987B" d="M379 235l36-4 1 27-38-6z" class="an1"/><path fill="#a2a2a2" d="M382 260l114-77 5 7-114 77z" class="an1"/><path fill="#DFBDA5" d="M376 238l32 7-3 8-31 1z" class="an1"/><path fill="#96647d" d="M381 229l-31 3-10 13 3 14 34 7z"/><path fill="#734e61" d="M153 258l-20 10-8 50 29 18 12-5 3-15 2-28-21-47z"/><path fill="#734e61" d="M136 248l-3 20 30 15 7-6-7-49-25 6z"/><path fill="#734D60" d="M125 318l29 18 12-5 3-15z"/><path fill="#474747" d="M30 170l41 56h11l11-34-6-14z"/><path fill="#4F5253" d="M248 130L117 240l-46-14 51-155z"/><path fill="#474747" d="M248 130l-15 50-116 60 60-143zM264 32l34 45-28 70-27-118z"/><path fill="#474747" d="M265 26l33 51-55-48z"/><path fill="#C3987B" d="M187 232L127 92l34-24 36 42 38 89-13 61z"/><path fill="#DFBDA5" d="M259 43l20 152-83 15-37-142z"/><path fill="#fff" d="M228 181l-13-5 14-4 10 2 11-1h4l-18 9z"/><path fill="#8B6651" d="M234 203l-12 58-36-50z"/><path fill="#474747" d="M151 84l23 42-6 5 4 56 5 22-66-103z"/><path fill="#DFBDA5" d="M168 131l-20 6 10 27 18-8z"/><path fill="#8B6651" d="M164 139l-10 2 12 7z"/><path fill="#734D60" d="M169 153l5 15-8 2-4-15z"/><path fill="#E8CAB6" d="M235 108l10 41-15 3-6-42z"/><path fill="#8B6651" d="M237 158l8-9-15 3z"/><path fill="#C3987B" d="M196 114l28-4 6 42zm47 26l14-37-22 5z"/><path fill="#474747" d="M192 105l25 6-32 4z"/><path fill="#734e61" d="M254 173l-18-6-21 9z"/><path fill="#b2869c" d="M235 186l19-13-18 5-21-2z"/><path fill="#474747" d="M263 101l-28 7 22-16z"/><path fill="#4F5253" d="M278 41l-104 85-78-25 26-30L253 2z"/><path fill="#474747" d="M96 101l20-36L253 2z"/><path fill="#6F7173" d="M299 42l-125 84L253 2z"/><path fill="#734e61" d="M246 240l13-3 6-8 40 2 22 20-23 19-52 12z"/><path fill="#734D60" d="M305 231l45 1-7 27-39 11z"/><path fill="#96637d" d="M153 241l10-13 5-2 26 15 28 13 10 17-8 45-20 23-43 31 8-54z"/><path fill="#b2869c" d="M204 339l-68 80-2-56 35-47zm56-21l11 44-35-25 11 21-23-42-2-62 24-17-6-11 21 5 4 6z"/><path fill="#d1a2b9" d="M260 318l28 60-5 43-36-63-11-21z"/><path fill="#734e61" d="M233 210l7 16 5 7 1 4-10 15-14 2zm-65 16l8-18 46 46h-34z"/><path fill="#b2869c" d="M168 226l-30 8-2 14 39-13z"/><path fill="#d1a2b9" d="M240 226l25 3v8h-19l-2-4zm-4 111l-32 2 20-23z"/><path fill="#505353" d="M496 183l3-6 8 11-6 2zm-117 78l3-1 5 7-2 3z" class="an1"/><path fill="#d1a2b9" d="M216 280l7-7 5 7-5 7zm1 24l6-6 6 7-5 6z"/><g clip-path="url(#c)" transform="matrix(1.33333 0 0 -1.33333 0 533)"><path fill="#2b2c2b" d="M189 318c-2 0-4-2-4-5 0-2 2-5 4-5 3 0 5 3 5 5 0 3-2 5-5 5m-34-6c-3 0-5-2-5-5 0-2 2-5 5-5 2 0 4 3 4 5 0 3-2 5-4 5"/><path fill="#734e61" d="M180 13h-4l-3 17 3 11 10-6-2-7zm-53 21l-6-14 5-13z"/><path fill="#DFBDA5" d="M141 38l5-10-7-9-13-2 1 17z"/><path fill="#96637d" d="M126 17l20 11 2-5-4-6-18-5z"/><path fill="#96637d" d="M126 12l22 11 7-11-11-2z"/><path fill="#DFBDA5" d="M191 44l11-12-6-7-9-3-11 19z"/><path fill="#96637d" d="M187 22l15 10 4-4-6-6-10-3z"/><path fill="#96637d" d="M190 18l16 10 11-10-15-2z"/><path fill="#734e61" d="M126 7h29v5h-29zm58 21l-2-2 1-2 10-11h24v5h-20z"/></g></svg>