<svg xmlns="http://www.w3.org/2000/svg" class="consul" viewBox="0 0 533 533"><path fill="#2b2b2b" d="M386 519l-196-10L5 520l177 13 204-14z" opacity=".1" style="isolation:isolate"/><path fill="#1c7678" d="M29 382l-14-25-10-2-4 100h9l19-73z"/><path fill="#27788c" d="M327 33l-96 61-20-18-10-19 11-8 115-16z"/><path fill="#3aa0ba" d="M156 77l-16 3-92 65 112-23 1-27-5-18z"/><path fill="#318fa6" d="M160 122l71-28-30-37-24 7-21 13 4 45z"/><path fill="#5ec0d9" d="M195 92l-24-37 12 47 19 42 14-2-21-50z"/><path fill="#3aa0ba" d="M183 64l-14 7 14 31 12-10-12-28z"/><path fill="#5ec0d9" d="M210 54l-67 28-1-28 6-38 7-6h7l31 23 17 21z"/><path fill="#3aa0ba" d="M162 10l165 23-117 21-48-44z"/><path fill="#318fa6" d="M148 16L48 145l95-63 5-66z"/><path fill="#3aa0ba" d="M162 10l-4-10-14 5 4 11 14-6z"/><path fill="#1c7678" d="M78 277l9 73-1 10 5 17 16-51 6-33-15-10-20-6z"/><path fill="#369496" d="M87 350l-43 12 10 30 23 38 12-31 2-22-4-27z"/><path fill="#1c7678" d="M44 362l-8 27v25l41 16-33-68z"/><path fill="#165e60" d="M36 414l-26 41 5-98 29 5-8 52z"/><path fill="#1c7678" d="M98 437l7 44 37-6 38-12-41-17-41-9z"/><path fill="#369496" d="M105 481l27 8 16 2 32-28-75 18z"/><path fill="#165e60" d="M148 491l36 26-43 2-39-2 3-36 43 10z"/><path fill="#50a9aa" d="M361 240l-37 37-18 38 51 31 16-39-2-32-10-35z" class="an2"/><path fill="#72cbcc" d="M371 275h15l31-8 13 8 2 12-5 23-70 36 14-71z" class="an2"/><path fill="#c3987b" d="M426 275l25-2 36 2-60 35-1-35z" class="an2"/><path fill="#1c7678" d="M361 241l-57 96-79-28-133-56 60-102 130 37 79 53z"/><path fill="#c4c4c4" d="M224 141l8 68-1 41 34 6 12 5 20 3 17 7 24-37 23 7-52 88-42 160-190-59 36-137-35-16 14-24 29 11 83 2-6-46 4-76 22-3z"/><path fill="#8f8f8f" d="M113 293l73 58-24 40 58 67 61-22 21-81-153-72-36 10z"/><path fill="#dfbda5" d="M327 43l44 32 46-5-56 171-55-12-29 32-24-40-29-80 11 1 6-4-4-33 31-9 4 36 16-3-13-82 52-4z"/><path fill="#c3987b" d="M327 43l-53 171 31 10-15 16-13 21-6-22-12-17-35-81 17-3 19-1 10-2 19-4-11-84 49-4z"/><path fill="#8b6651" d="M260 126l-2-15-13 1 15 14zM241 138l29-3-27 16-2-13zM355 159l-12 5-6-10 18 5z"/><path fill="#c3987b" d="M327 105l13 10-3 39 13-28 2-21h-25zM370 110l-12 16 1 18 19-21 13-2-21-11z"/><path fill="#8b6651" d="M273 214l-14 8 6 19 12 20 15-16 13-21-32-10z"/><path fill="#474747" d="M372 104l21 10-2 7-21-11 2-6zM354 98l-26-1-1 8h25l2-7z"/><path fill="#c3987b" d="M301 161l70 22-36 9-34-31z"/><path fill="#fff" d="M318 171l38 11-21 6-17-17z"/><path fill="#318fa6" d="M522 182H396v22l84 3 42-3v-22z" class="an1"/><path fill="#5ec0d9" d="M522 222l-56 3-70-3v-18h126v18z" class="an1"/><path fill="#3aa0ba" d="M522 222H396v18l65 1 61-1v-18z" class="an1"/><path fill="#5ec0d9" d="M522 249H396v-9h126v9z" class="an1"/><path fill="#318fa6" d="M522 249H396v8l69 2 57-2v-8z" class="an1"/><path fill="#5ec0d9" d="M522 266l-60 2-66-2v-9h126v9z" class="an1"/><path fill="#27788c" d="M531 266H386v9h145v-9z" class="an1"/><path fill="#e5c828" d="M515 139l-6-9-6 9 6 9 6-9z" class="an1"/><path fill="#318fa6" d="M512 145h-7v38h7v-38z" class="an1"/><path fill="#e5c828" d="M489 139l-5-9-6 9 6 9 5-9z" class="an1"/><path fill="#318fa6" d="M487 145h-7v38h7v-38z" class="an1"/><path fill="#e5c828" d="M439 139l-6-9-5 9 5 9 6-9z" class="an1"/><path fill="#318fa6" d="M437 145h-7v38h7v-38z" class="an1"/><path fill="#e5c828" d="M413 139l-5-9-6 9 6 9 5-9z" class="an1"/><path fill="#318fa6" d="M411 145h-7v38h7v-38z" class="an1"/><path fill="#27788c" d="M473 167h-29l14 15 15-15z" class="an1"/><path fill="#5ec0d9" d="M473 167l-15-14-14 14h29zM421 182h-25l12 12 13-12h25l12 12 13-12h25l13 12 13-12h-26l-12 12-13-12h-25l-13 12-12-12z" class="an1"/><path fill="#474747" d="M355 11l-57 5 13 20 16 7 44 37-3-33-13-36z"/><path fill="#6f7173" d="M298 16l-47 6 17 20 13 7 46-6-29-27z"/><path fill="#474747" d="M251 22l-14 83 29-4 4 34 21-3-10-83-30-27z"/><path fill="#8f8f8f" d="M371 80l-16-69 62 59-46 10z"/><path fill="#27788c" d="M273 299l25 11 40 66-112 63-9-15 97-55-41-70z"/><path fill="#27788c" d="M291 314l7-4-25-11 6 10 6 4 6 1z"/><path fill="#dddddc" d="M279 309l12 5 35 59-9-1-3-3-20-29-15-31z"/><path fill="#c4c4c4" d="M314 369l12 4-99 55-10-4 54-35 43-20z"/><path fill="#3aa0ba" d="M273 299l-106 63 36 70 111-63-41-70z"/><path fill="#27788c" d="M240 363l-35 7-19-19 14-9 40 21z"/><path fill="#dfbda5" d="M226 304l-22 9-12 11 15 36 22-10 20-15-23-31z"/><path fill="#8b6651" d="M249 335l-9 28-33-3 42-25z"/><path fill="#c3987b" d="M226 304l24 9-12 7-12-16z"/><path fill="#72cbcc" d="M202 144l-50 7-39 142 48-9 43-18 2-58-4-64z"/><path fill="#50a9aa" d="M113 293l79 31 34-20-22-38-91 27zM224 141l2 68 5 41 46 11-18-39-35-81z"/><path fill="#72cbcc" d="M305 224l-28 37 20 6 17 4 14-17 10-20-33-10z"/><path fill="#dddddc" d="M204 266l27-16-7-109-22 3 2 122zM314 271l16 22 31-52-23-7-24 37z"/><path fill="#2b2b2b" d="M376 123a6 6 0 00-5 6 6 6 0 1011 1 5 5 0 000-1 6 6 0 00-6-6zM335 112a6 6 0 00-6 6 6 6 0 0012 0 6 6 0 00-6-6z"/><path fill="#e8cab6" d="M352 105l18 5-15 49-18-5 15-49z"/><path fill="#1c7678" d="M102 517h82v9h-82z"/></svg>