<svg xmlns="http://www.w3.org/2000/svg" class="debater" viewBox="0 0 533 533"><defs><clipPath id="a"><path d="M0 400h400V0H0z"/></clipPath><clipPath id="b"><path d="M76 22h285V0H76z"/></clipPath><clipPath id="c"><path d="M0 400h400V0H0z"/></clipPath></defs><g clip-path="url(#a)" transform="matrix(1.33333 0 0 -1.33333 0 533)"><g clip-path="url(#b)" opacity=".1"><path fill-rule="evenodd" d="M76 8l119 14 166-12L196 0z"/></g></g><path fill="#795d88" fill-rule="evenodd" d="M217 433l19 26 27-7 19-16-21-81-37 56z"/><path fill="#594265" fill-rule="evenodd" d="M236 459l23 34 30-7 4-8-11-42z"/><path fill="#9075a0" fill-rule="evenodd" d="M157 356l104-1-37 56-33-15z"/><path fill="#a588b9" fill-rule="evenodd" d="M224 411l-10 41-27 12-27-10-11-55-3-22 11-21z"/><path fill="#795d88" fill-rule="evenodd" d="M214 452l-9 37-16 9-21-2-8-42z"/><path fill="#96637c" fill-rule="evenodd" d="M205 489l12 28-25 3-25-3 1-21zm88-11l34 32-39 3-28-3-1-17z"/><path fill="#543042" fill-rule="evenodd" d="M217 526h-50v-9h50zm110-7h-67v-9h67z"/><path fill="#fefefe" fill-rule="evenodd" d="M148 210l61 63 17-66-40-6z"/><path fill="#DFBDA5" fill-rule="evenodd" d="M224 55l15-15 16-3 24 130-43 11-51 3-25-88-5-42 36-4z"/><path fill="#C3987B" fill-rule="evenodd" d="M216 187l63-20-94 17-19-95-11-38-21 26 6 19 15 25-7 1-4 8-7-6-6-13-7 10-9 5 13 10 5 13 4 8 2 15 9 39 78-4z"/><path fill="#474747" fill-rule="evenodd" d="M262 74l6-45-23 4z"/><path fill="#b3889d" fill-rule="evenodd" d="M267 221l14 40-4 38-25 18-1-61z"/><path fill="#96637c" fill-rule="evenodd" d="M272 292l5 7 29 4-6 29-44 2-3-33z"/><path fill="#734d61" fill-rule="evenodd" d="M271 296l-2 16 20 19 17-28-15-3z" class="an1"/><path fill="#C3987B" fill-rule="evenodd" d="M286 283l-7-8 27-35 7 6-11 19-5 14z" class="an1"/><path fill="#C3987B" fill-rule="evenodd" d="M286 277l23 23-16 16-13-11z" class="an1"/><path fill="#DFBDA5" fill-rule="evenodd" d="M281 261l-7 1-3 34 9 9 6-22z" class="an1"/><path fill="#E8CAB6" fill-rule="evenodd" d="M286 283l16-18 16 26-12 12z" class="an1"/><path fill="#C3987B" fill-rule="evenodd" d="M177 83l29 15 16 29-2-27-4-15zm56-10l-4 11-1 10 6 13 23-38-11-13z"/><path fill="#474747" fill-rule="evenodd" d="M216 85l-37-11-2 9 32 10zm13-17l17-12 11 13-6 5-8-9-10 8z"/><path fill="#E8CAB6" fill-rule="evenodd" d="M229 84l8 39-6 4h-9l-6-42z"/><path fill="#8B6651" fill-rule="evenodd" d="M252 148l-28 2-22-7 3-9-12 8 3 15 5-8 23 7z"/><path fill="#DFBDA5" fill-rule="evenodd" d="M144 130l4 7-15 12-18-23 16-15z"/><path fill="#737373" d="M222 0l-4 30 6 25 44-26-46-29z"/><path fill="#8f8f8f" d="M221 0L101 45l26 8 28-2 69 4-2-55z"/><path fill="#737373" fill-rule="evenodd" d="M101 45l-5 71 21-18 17-21 21-26z"/><path fill="#474747" fill-rule="evenodd" d="M134 77l21 44-11 9-13-19-16 15-19-10z"/><path fill="#8B6651" fill-rule="evenodd" d="M124 127l5-6 7 12zm9 22l11-9-5 33zm104-26l-6 11-9-7z"/><path fill="#96637c" fill-rule="evenodd" d="M148 210l57 43-33 26-40 25-14-31-10-41zm78-3l41 14-12 42-24 5-26-15z"/><path fill="#734c5f" fill-rule="evenodd" d="M132 304l11 40 14 12 60 6v-59l-12-50z"/><path fill="#543042" fill-rule="evenodd" d="M205 253l50 10 6 92-44 7z"/><g clip-path="url(#c)" transform="matrix(1.33333 0 0 -1.33333 0 533)"><path fill="#2b2b2b" d="M188 334a4 4 0 10-8 0 4 4 0 008 0m-34-7a4 4 0 10-8 0 4 4 0 008 0"/><path fill="#8B6651" fill-rule="evenodd" d="M127 263l82 12-40-18v-12z"/><path fill="#96637c" fill-rule="evenodd" d="M92 168l26-35-16-19-27 23z"/><path fill="#DFBDA5" fill-rule="evenodd" d="M111 101l-9 13 16 19z"/><path fill="#b3889d" fill-rule="evenodd" d="M81 226l-23-74 17-15 24 35z"/><path fill="#96637c" fill-rule="evenodd" d="M297 181l-16-3-1 60 3 5 5 3z"/><path fill="#b3889d" fill-rule="evenodd" d="M288 246l-8-8-32 29v3l3 1zm-45 39l-5-8-6-7-5 10 5 7z"/><path fill="#96637c" fill-rule="evenodd" d="M243 285l-11-15 18-5 4 4z"/><path fill="#9075a0" fill-rule="evenodd" d="M328 11l-34 6-41-6v132l3 10-3 19 75 19-3-53 3-48-4-45z"/><path fill="#594165" fill-rule="evenodd" d="M328 191l-75-18v-30l75-53z"/><path fill="#785d88" fill-rule="evenodd" d="M343 179l-104-26v19l104 26zm-15-89l-75-79h75z"/></g></svg>