<svg xmlns="http://www.w3.org/2000/svg" class="defender" viewBox="0 0 533 533"><defs><clipPath id="a"><path fill="none" d="M0 0h533v533H0z"/></clipPath><clipPath id="b"><path fill="none" d="M138 503h232v30H138z"/></clipPath><clipPath id="c"><path fill="none" d="M195 321h90v28h-90z"/></clipPath></defs><g clip-path="url(#a)"><g clip-path="url(#b)"><path fill-rule="evenodd" d="M138 523l126-20 106 19-97 11z" opacity=".1"/></g></g><path fill="#C3987B" fill-rule="evenodd" d="M264 455l21 34 11 2 5-5-3-27zm-20-2l-3 38-14 4-3-6-13-39z"/><path fill="#29788b" fill-rule="evenodd" d="M301 486l15 14-14 16-18-2 1-25zm-60 5l10 28-18 2-18-2 9-30z"/><path fill="#8B6651" fill-rule="evenodd" d="M298 459l-27 7-7-11 17-2zm-87-9l32 13 1-10-16-3z"/><path fill="#4fa8a9" fill-rule="evenodd" d="M201 232l-40 86 33-19 23-11zm72-11l13 6 46 67-34-15-25-17z"/><path fill="#73cacb" fill-rule="evenodd" d="M273 221l-16 39-21 9 22-16-29-35-28 14 10 53-12 36-17 37h42l49-9 12-17 13-53z"/><path fill="#359395" fill-rule="evenodd" d="M211 285l-12 36h41l45 7 13-36v-13zm62 64l-25 45-42 40-25-76z"/><path fill="#4fa8a9" fill-rule="evenodd" d="M273 349l10 18 12 58v28l-84-3-5-16z"/><path fill="#359395" fill-rule="evenodd" d="M211 450l84-25 3 34z"/><g clip-path="url(#a)"><g clip-path="url(#c)"><path fill="#2b2b2b" fill-rule="evenodd" d="M195 330l4-9h53l33 11-12 17z" opacity=".2"/></g></g><path fill="#359395" fill-rule="evenodd" d="M273 349l22 76-10-93z"/><path fill="#DFBDA5" fill-rule="evenodd" d="M211 285l39 24 2 8-2 8-89-7z"/><path fill="#fff" fill-rule="evenodd" d="M273 221l-49-1v55l33-15 37 8z"/><path fill="#4f5253" fill-rule="evenodd" d="M322 78l29 18-23 32-6-25z"/><path fill="#73cacb" d="M262 0l-99 44 14 25 12 9 39-8 44-23-2-21z"/><path fill="#359395" fill-rule="evenodd" d="M163 44l6 59 14-12 6-13z"/><path fill="#29788b" fill-rule="evenodd" d="M264 9l-4 2 2 11-10 4 2 8 10-4 2 10 4-1V26z"/><path fill="#DFBDA5" fill-rule="evenodd" d="M321 70l16 125-58 9-22 56-46-65-33-31 23-13 5 7 18-61 22-7 24-7z"/><path fill="#93d4d5" d="M272 47l21 18 29 13 8-49-68-29z"/><path fill="#C3987B" fill-rule="evenodd" d="M228 105l14 106 37-7-12 11 3 11-13 34-57-70-4-9-6-3-18-22 23-19 10 23 7-22zm84 3l-21 30-10 13-31-33z"/><path fill="#E8CAB6" fill-rule="evenodd" d="M275 114l6 37 12-1-6-38z"/><path fill="#8B6651" fill-rule="evenodd" d="M293 150l-5 8-7-7zm-14 54l-9 22-39-15zm-75-35l-4 21-10-12zm-4-4l-8-13-10 6z"/><path fill="#4f5253" fill-rule="evenodd" d="M267 94l7-24-2-23-83 31-40 50 40-10 39-13 17-5z"/><path fill="#2b2b2b" fill-rule="evenodd" d="M228 105l-22 58-11-19-23 12-23-28z"/><path fill="#6f7173" fill-rule="evenodd" d="M272 47l50 31-55 16z" class="an4"/><path fill="#4f5253" fill-rule="evenodd" d="M275 114l-1-8-24 12zm12-2l25-4-26-4z" class="an2"/><path fill="#1e7678" fill-rule="evenodd" d="M277 174l12-8 13 3-12 8z"/><path fill="#3a9fb9" fill-rule="evenodd" d="M240 508h-14l-12 11v4h37v-4z"/><path fill="#ebbea7" fill-rule="evenodd" d="M296 318l-11 13-4-12z"/><path fill="#3a9fb9" fill-rule="evenodd" d="M316 500l-19 14h-13v4h52v-9z"/><path fill="#4fa8a9" fill-rule="evenodd" d="M266 172l26 11 19-18-21 10z" class="an1"/><g clip-path="url(#a)"><path fill="#2b2b2b" fill-rule="evenodd" d="M271 133a6 6 0 11-6-6 6 6 0 016 6m36-6a6 6 0 11-6-6 6 6 0 016 6" class="an5"/></g><path fill="#C3987B" fill-rule="evenodd" d="M291 333l-26-6 4-15 3-10 28 16z"/><path fill="#E8CAB6" fill-rule="evenodd" d="M265 327l-15-2 2-8-2-8 22-7zm9-33l19 6 3 18-15 1z"/><path fill="#DFBDA5" fill-rule="evenodd" d="M298 279l-5 21 3 18 34-8 2-16z"/><path fill="#C3987B" fill-rule="evenodd" d="M250 309l24-15 7 10v15l-31 6z"/><path fill="#318ea5" fill-rule="evenodd" d="M264 9l4 3 3 9 9 5v7l-8-4 2 11-4-1z"/></svg>