<svg xmlns="http://www.w3.org/2000/svg" class="entertainer" viewBox="0 0 533 533"><defs><clipPath id="a"><path d="M0 400h400V0H0z"/></clipPath><clipPath id="b"><path d="M93 21h215V0H93z"/></clipPath><clipPath id="c"><path d="M0 400h400V0H0z"/></clipPath></defs><g clip-path="url(#a)" transform="matrix(1.33333 0 0 -1.33333 0 533)"><g clip-path="url(#b)" opacity=".1"><path fill-rule="evenodd" d="M93 7l118 14 97-12-99-9z"/></g></g><path fill="#DFBDA5" fill-rule="evenodd" d="M301 214l60 63-6 12-34-13-19-16 2-28z"/><path fill="#C3987B" fill-rule="evenodd" d="M321 276l67-16 5 5 2 14-43 21z"/><path fill="#8B6651" fill-rule="evenodd" d="M395 263l16-16 7 12-5 19-18 1-3-8z" class="an1"/><path fill="#9e7700" d="M431 294l-10 4-11-28-2-7-7-15-6-14 10-4 6 14 7 19 4 7z" class="an1"/><path fill="#755800" d="M425 278h-12l-18-44 10-4z" class="an1"/><path fill="#C3987B" fill-rule="evenodd" d="M410 242l12-2 11 26-16 9-6-14z" class="an1"/><path fill="#DFBDA5" fill-rule="evenodd" d="M388 260l4 11 10-6 2-8 8 7 6-2-8-20-9 5z" class="an1"/><path fill="#ccad14" d="M416 230l-15 3-13 8-15-12 21-11 24-7z" class="an1"/><path fill="#9e7700" d="M418 211l-45 18-3-8 22-11 23-7z" class="an1"/><path fill="#e5c82e" d="M415 203l-45 18-3-8 21-11 24-7z" class="an1"/><path fill="#9e7700" d="M412 195l-45 18-3-8 22-11 23-7z" class="an1"/><path fill="#ccad14" d="M394 175l-13 8-15 3-2 19 45-18z" class="an1"/><path fill="#9e7700" d="M388 241l8-21 20 10zm-22-55l20 10 8-21z" class="an1"/><path fill="#2b2b2b" fill-rule="evenodd" d="M195 189l49 2v-41z"/><path fill="#7a7a7a" fill-rule="evenodd" d="M181 78l-32 49 47-12z"/><path fill="#755800" fill-rule="evenodd" d="M255 524l-46-1-2-14h22z"/><path fill="#DFBDA5" fill-rule="evenodd" d="M225 227l-38 53 13 9 26-9 3-39z"/><path fill="#C3987B" fill-rule="evenodd" d="M226 280l-70-21-6 5-2 14 46 23z"/><path fill="#755800" fill-rule="evenodd" d="M319 491l-41-23 6-13 20 18z"/><path fill="#856400" fill-rule="evenodd" d="M253 438l35-15 23-47-72 18z"/><path fill="#DFBDA5" fill-rule="evenodd" d="M310 444l13 42-6-1-6-3-18-18-3-10 4-9 8-14z"/><path fill="#C3987B" fill-rule="evenodd" d="M319 377l-9 67-16 1-6-22 15-49z"/><path fill="#DFBDA5" fill-rule="evenodd" d="M229 473l-2 19 29 26-6 3-28-7-11-8-2-12z"/><path fill="#C3987B" fill-rule="evenodd" d="M241 462l-14 30-18 2 5-41 7-12z"/><path fill="#8B6651" fill-rule="evenodd" d="M215 453l26 9 12-24-23-7zm70-45l3 15 31-46-24-9z"/><path fill="#DFBDA5" fill-rule="evenodd" d="M225 226l76-12-24 39z"/><path fill="#9e7700" fill-rule="evenodd" d="M225 226l1 54 37-18 14-15zm52 21l24-33 20 62-32-9z"/><path fill="#755800" fill-rule="evenodd" d="M226 280l1 34 50 48 44-86-44-29z"/><path fill="#e5c82e" fill-rule="evenodd" d="M231 332l88 45-68 61-16-2-39-84z"/><path fill="#ccad14" fill-rule="evenodd" d="M196 352l57 86-39 15z"/><path fill="#8B6651" fill-rule="evenodd" d="M149 261l-16-16-8 12 5 18 18 3 3-8z" class="an2"/><path fill="#9e7700" d="M111 290l10 5 12-27 3-7 7-14 6-15-9-4-7 14-8 19-4 7z" class="an2"/><path fill="#755800" d="M118 275h12l19-43-9-4z" class="an2"/><path fill="#C3987B" fill-rule="evenodd" d="M134 240l-12-3-11 25 14 10 8-13z" class="an2"/><path fill="#DFBDA5" fill-rule="evenodd" d="M156 259l-5 11-9-7-2-8-9 7-6-2 9-20 10 5z" class="an2"/><path fill="#ccad14" d="M129 227l15 4 13 9 15-11-20-12-24-9z" class="an2"/><path fill="#9e7700" d="M128 208l44 21 4-8-22-13-23-7z" class="an2"/><path fill="#e5c82e" d="M131 201l45 20 3-7-21-13-23-8z" class="an2"/><path fill="#9e7700" d="M135 193l44 21 4-8-22-13-23-8z" class="an2"/><path fill="#ccad14" d="M154 174l13 9 14 4 2 19-45-21z" class="an2"/><path fill="#9e7700" d="M157 240l-7-21-21 8zm24-53l-20 9-7-22z" class="an2"/><path fill="#2b2b2b" fill-rule="evenodd" d="M398 120l-1 23-33-1 7-37z"/><path fill="#4F5253" fill-rule="evenodd" d="M387 70l25 41-27 8-11-8-4-31z"/><path fill="#484748" fill-rule="evenodd" d="M412 111h-38l-19 12 9 19zm-263 16l61 28 30 4 1-36-16-28z"/><path fill="#856400" fill-rule="evenodd" d="M364 120l11 37-25 8 4-13 6-2-2-10-2-8z"/><path fill="#DFBDA5" fill-rule="evenodd" d="M236 128l8 43 14 40 25 2 15-18 44 14 45-139-107 26z"/><path fill="#C3987B" fill-rule="evenodd" d="M282 127l-14 61 30 7-18 21-1 15-32-8-7-64 2-11-6-20 35-29zm70-24l-5 3-9 29 21-18 8-7zm-14 0l-7-7-22-1 14 25 1 21z"/><path fill="#8B6651" fill-rule="evenodd" d="M262 147l-22 12-4-31 21-21 19 16z"/><path fill="#E8CAB6" fill-rule="evenodd" d="M338 103l9 3-12 39-11-4z"/><path fill="#8B6651" fill-rule="evenodd" d="M324 141l4 9 7-5zm61-62l-104 53-18-1 7-16 61-19 56-26z"/><path fill="#4F5253" fill-rule="evenodd" d="M217 73l-6-14-57-14 44 99 29-25 3-21z"/><path fill="#6F7173" fill-rule="evenodd" d="M198 81l-44-36 82-9-10 29z"/><path fill="#4F5253" d="M267 0l-69 81 84-24 54-32-69-25z"/><path fill="#2b2b2b" fill-rule="evenodd" d="M357 93l10 17-15-7z"/><path fill="#856400" fill-rule="evenodd" d="M289 146l38 6 21 16-34 22z"/><path fill="#755800" fill-rule="evenodd" d="M305 164l14-5 12 14-9 6-10-3z"/><path fill="#fff" fill-rule="evenodd" d="M305 164l26 9 8-6-41-15z"/><path fill="#856400" fill-rule="evenodd" d="M271 121l-9 26-37-11 2-7 9-1 19 5 3-10z"/><path fill="#8B6651" fill-rule="evenodd" d="M298 195l-40-13 21 49z"/><path fill="#2b2b2b" fill-rule="evenodd" d="M230 98l-32 46 73-23z"/><g clip-path="url(#c)" transform="matrix(1.33333 0 0 -1.33333 0 533)"><path fill="#2b2b2b" d="M271 308a4 4 0 10-9 0 4 4 0 009 0m-27 9a4 4 0 10-8 0 4 4 0 008 0"/><path fill="#484748" fill-rule="evenodd" d="M304 354l-92-49-63 35 73 9z"/><path fill="#8F8F8F" fill-rule="evenodd" d="M304 354l-29 36-126-50z"/><path fill="#474747" fill-rule="evenodd" d="M112 305l68-24-34-22z"/><path fill="#C3987B" fill-rule="evenodd" d="M157 29l10-15 30-2-6-5-36 11z"/><path fill="#9e7700" fill-rule="evenodd" d="M182 21l-6-9 5-2 4 8z"/><path fill="#C3987B" fill-rule="evenodd" d="M221 66l-1-14 27-18-8-2-26 27z"/><path fill="#9e7700" fill-rule="evenodd" d="M238 50l-10-7 3-3 8 5z"/><path fill="#f4d75c" fill-rule="evenodd" d="M239 117l-92 19 23 28z"/></g></svg>