<svg xmlns="http://www.w3.org/2000/svg" class="entrepreneur" viewBox="0 0 533 533"><defs><clipPath id="a"><path d="M0 400h400V0H0z"/></clipPath><clipPath id="b"><path d="M90 24h246V0H90z"/></clipPath></defs><g clip-path="url(#a)" transform="matrix(1.33333 0 0 -1.33333 0 533)"><g clip-path="url(#b)" opacity=".1"><path fill-rule="evenodd" d="M336 13L212 24 90 9l121-9z"/></g></g><path fill="#4f5253" fill-rule="evenodd" d="M116 359l13-25 16 4-17 28z" class="an1"/><path fill="#856400" fill-rule="evenodd" d="M172 251l44 75-34 11-32-42zm159-35l40 59-6 28-16 17-21-18-5-49z"/><path fill="#bf8f00" fill-rule="evenodd" d="M371 275l34-3 6 17-5 21-57 10z" class="an2"/><path fill="#846528" fill-rule="evenodd" d="M327 379l7 55-18 28-31-5-31-51z"/><path fill="#755924" fill-rule="evenodd" d="M285 457l49-23 5 41-16 15-19-2z"/><path fill="#b58b00" fill-rule="evenodd" d="M340 479l13 8 22 19-40 3-30-3-1-18 27-16z"/><path fill="#e5c82e" fill-rule="evenodd" d="M330 478l14 12 9-3-14-12-5-3z"/><path fill="#bf8f00" fill-rule="evenodd" d="M280 417l-9 30-27 15-28-8-16-73 59 17z"/><path fill="#846528" fill-rule="evenodd" d="M216 454l55-7-11 40-19 10-17-3z"/><path fill="#b58b00" fill-rule="evenodd" d="M260 487l11 27-28 4-23-4 4-20 12-8 6-1h6z"/><path fill="#e5c82e" fill-rule="evenodd" d="M271 522h-51v-8h51zm-35-30l2 13h14l-5-15-5-2zm139 22h-70v-8h70z"/><path fill="#9d782c" fill-rule="evenodd" d="M327 379l-47 38-80-36 56-8 26-16 17 12z"/><path fill="#e5c82e" fill-rule="evenodd" d="M318 225l-19-9-14 18-11 27-36-13-36-8-16 19 11 67 5 17-2 38 67 12 15-34 18 30 27-10 1-77z"/><path fill="#755800" fill-rule="evenodd" d="M191 211l14-14 2 13 8 13zm93-30l27 14-12 21-25 45 1-46z"/><path fill="#bf8f00" fill-rule="evenodd" d="M197 326l5-86-30 11zm134-110l-3 86-29-86zm-68 72l-52 8 1 7 52-8z"/><path fill="#DFBDA5" fill-rule="evenodd" d="M193 70l77-9 24-11 26 120-36 11-5 15-5 11-32 18-27-17-41-47-17-26-4-26z"/><path fill="#C3987B" fill-rule="evenodd" d="M201 69l37 125 46-13-4 16v16l-6 48-41-24-25-23-24-37-1-11-9-5 20-15-17-25-20 14-12-19 37-36 11-10zm74 61l-22-32-29-10 33-10 8 10 12 22zm3-44l1-11 19-6-15 48z"/><path fill="#8B6651" fill-rule="evenodd" d="M194 146l-20 15 10 16zm76-40l-38 31-15-15h-6l-3-4 16-8zm12-2l25 8-1-5-5-9z"/><path fill="#856400" fill-rule="evenodd" d="M184 83l38 56-20 19-25-37-20 14-12-19 20-24z"/><path fill="#E8CAB6" fill-rule="evenodd" d="M278 86l-13 2 10 42 12-3z"/><path fill="#8B6651" fill-rule="evenodd" d="M183 144l-8-14-11 8z"/><path fill="#856400" fill-rule="evenodd" d="M224 88l23-15 10 5zm55-13l10-10 9 4z"/><path fill="#C3987B" fill-rule="evenodd" d="M307 133l-69 17 26 13 30-7z"/><path fill="#fff" fill-rule="evenodd" d="M299 140l-48 11 14 8 26-6z"/><path fill="#8B6651" fill-rule="evenodd" d="M287 127l-5 8-7-5z"/><path fill="#755800" fill-rule="evenodd" d="M211 122l-32 2-2-3 17-5 14 2z"/><path fill="#8B6651" fill-rule="evenodd" d="M284 181l-60 18 56 14z"/><path fill="#bf8f00" fill-rule="evenodd" d="M270 14L157 42l-20 34 71-26z"/><path fill="#9e7700" fill-rule="evenodd" d="M201 69l-56 47-8-40 50-24z"/><path fill="#856400" fill-rule="evenodd" d="M201 69l-14-6V52l83-38 3 24-3 23z"/><path fill="#bf8f00" d="M270 14v47l24-11 30-49z"/><path fill="#484748" fill-rule="evenodd" d="M220 99l-61 15-2 21 20-14 47-5v-9zm58-13l-13 2v6l3 5 12-3 1-4z"/><path fill="#4f5253" fill-rule="evenodd" d="M270 106l-41 27-9-34 45-11zm46-30l7 33-41-5-4-18z"/><path fill="#bf8f00" fill-rule="evenodd" d="M243 226l-52-15 11 29 72 21z"/><path fill="#ccad14" fill-rule="evenodd" d="M202 343l72-32h8l46 24-46 22z"/><path fill="#bf8f00" fill-rule="evenodd" d="M274 261v50l8 48v-48zm-124 34l65 43-4 19-11 12-71-35z"/><path fill="#DFBDA5" fill-rule="evenodd" d="M215 338l16 10-31 21z"/><path fill="#9d782c" fill-rule="evenodd" d="M219 470h46l-5 17-36 7z"/><path fill="#ccae2d" fill-rule="evenodd" d="M236 492v-13l12-1-1 12z"/><path fill="#9d782c" fill-rule="evenodd" d="M295 473l41-19 3 21-35 13z"/><path fill="#ccae2d" fill-rule="evenodd" d="M330 478l-2-13 9-3 2 13z"/><path fill="#C3987B" fill-rule="evenodd" d="M405 272l20-2 8 18-4 23-23-1z" class="an2"/><path fill="#DFBDA5" fill-rule="evenodd" d="M405 272l16-27 9 3-7 35-18 7z" class="an2"/><path fill="#C3987B" fill-rule="evenodd" d="M425 270l42-2v8l-35 9z" class="an2"/><path fill="#DFBDA5" fill-rule="evenodd" d="M446 281l2 23-19 7-6-28z" class="an2"/><path fill="#858686" fill-rule="evenodd" d="M109 369l95 37 18 16-6 32-115-23-16-44z" class="an1"/><path fill="#a3a2a2" fill-rule="evenodd" d="M204 406L85 387l31-28 124 15-10 23z" class="an1"/><path fill="#6f7173" fill-rule="evenodd" d="M237 379l-10 7-23 20 12 48 37-32-9-33z" class="an1"/><path fill="#4f5253" fill-rule="evenodd" d="M202 240l42 149-17-3-36-141z" class="an1"/><path fill="#dddddc" fill-rule="evenodd" d="M132 406l-11 1-1 5 6 4-7 3 1 4 9-2 2-6-7-4 9-1zm8 10l-3-1 1-3 3 1zm5-6l-9-1-3 15 5 1-1-7 8 1zm9 13l-4-1 1-5 4 1zm4-10l-9-1-2 14 11 1zm8 4l3 1-1 3-3-1zm7 13l-2-6 2-9-9-1-3 14 5 2-1-7 5 7zm3-13h13v4h-6l-1 11-5-1 3-10-5-1z" class="an1"/></svg>