<svg xmlns="http://www.w3.org/2000/svg" class="executive" viewBox="0 0 533 533"><defs><clipPath id="a"><path d="M0 400h400V0H0z"/></clipPath><clipPath id="b"><path d="M134 22h165V-1H134z"/></clipPath><clipPath id="c"><path d="M0 400h400V0H0z"/></clipPath><clipPath id="d"><path d="M168 162h67v-60h-67z"/></clipPath><clipPath id="e"><path d="M0 400h400V0H0z"/></clipPath></defs><path fill="#8e8f8e" d="M297 222l38 55-21 41v-17l5-23-9-16z"/><path fill="#474747" d="M364 290l14 22-16 6-34 9-15-9-1-12 5-12z"/><g clip-path="url(#a)" transform="matrix(1.33333 0 0 -1.33333 0 533)"><g clip-path="url(#b)" opacity=".1"><path fill="#2a2a2a" d="M134 11l85 11 80-13-80-10z"/></g></g><path fill="#474747" d="M234 490l-8 19 6 16z"/><path fill="#C3987B" d="M259 498l-3-11-22 3-2 23v5l24-5 5-9z"/><path fill="#707274" d="M232 518l29-14 9 14-14 3z"/><path fill="#474747" d="M232 525h38v-7h-38z"/><path fill="#207577" d="M241 409l-7 83h23l4-88z"/><path fill="#474747" d="M317 517h-5l-4-22 6-15 11 9-3 9z"/><path fill="#C3987B" d="M344 491l-5-11h-25l12 25 3 4 14-4 4-9z"/><path fill="#707274" d="M329 510l18-14 17 14-19 3z"/><path fill="#474747" d="M322 497l-3 3v8l15 9h30v-7h-25z"/><path fill="#DFBDA5" d="M325 38l-57 14-51 19 4 23 13 28h-6l-4 7-6-13-6-5-8 4-10 10 3 7 8 9 7 10 27 60 48 9-1-27 5-19 20-8 31-9-3-57z"/><path fill="#C3987B" d="M264 111l8-20 23-1 13 34-10-46-23 1-14 11-6 10zm69-37l-15 11-1 20-14-32z"/><path fill="#C3987B" d="M258 120l48-2v-6zm81-18l-19 13-2-7z"/><path fill="#C3987B" d="M232 66l20 18 6 36 5 54 24 46-22-2-26-7-27-60 15-9-3-13 10-7-17-51z"/><path fill="#8B6651" d="M212 151l15-9-5 32zm130 6l-93 19 24 42 6 3 8-1 4-46z"/><path fill="#2a2a2a" d="M261 71l15 9 22-6zm45-5l11-13 9 2z"/><path fill="#E8CAB6" d="M298 74l10 50 13-2-12-49z"/><path fill="#8B6651" d="M308 124l7 7 6-9z"/><path fill="#29778c" d="M271 139h29l15 6-19 1-11-1-3-1-3-2z"/><path fill="#3ca0ba" d="M278 142l8 8 29-5h-30z"/><path fill="#8B6651" d="M204 129l7-7 7 11z"/><path fill="#474747" d="M325 38L272 2l2 27 7 22z"/><path fill="#6F7173" d="M272 2l-87 29-6 16v12l18 8 20 4 15-5 49-15z"/><path fill="#474747" d="M179 59l-4 10 1 7-7 40 31-4 27-11-10-30z"/><path fill="#333" d="M169 116l58-15 7 21-10 7-12-18-18 14 11 16zm7-40l-28-3 14-19 23-23-6 28z"/><path fill="#6F7173" d="M185 31l-36-18-25 86 24-26z"/><path fill="#474747" d="M239 211l58 11-6 14-13 17-31-16-20-19z"/><path fill="#73cacc" d="M227 218l-19 10 8 27 12 28 11 4 40 4 40-13-22-56-19 31z"/><path fill="#207577" d="M228 283l91-5-9 65-30 1-35-5z"/><path fill="#73cacc" d="M245 339l30 36 18 11 16-14 1-29z"/><path fill="#379495" d="M245 339l48 47 6 55-42 51-35-114z"/><path fill="#51a8aa" d="M310 343l16 75-13-8-20-24z"/><path fill="#207577" d="M293 386l33 32 13 62-82 12z"/><g clip-path="url(#c)" transform="matrix(1.33333 0 0 -1.33333 0 533)"><g clip-path="url(#d)" opacity=".2"><path fill="#2a2a2a" d="M168 112l3-10 63 54 1 6-58-28z" class="an1"/></g></g><path fill="#8e8f8e" d="M208 228l-46 73 25-4 18-8 23-7z"/><path fill="#474747" d="M205 289l12 43-9 8h-10l-36-39z"/><g clip-path="url(#e)" transform="matrix(1.33333 0 0 -1.33333 0 533)"><path fill="#5fbfd8" d="M147 119c-1-1-2 0-3 1l1 3c1 1 3 0 3-1 1-1 1-3-1-3m-13 10l10-17 165 89-9 17z" class="an1"/><path fill="#73cee3" d="M303 212l-165-89-4 6 166 89z" class="an1"/><path fill="#338ea5" d="M143 126l-2-1-3 6 2 1zm4 5l-1-1-2 4h1zm4 2l-3 4h1zm5 3l-1-1-2 4 1 1zm7 0l-2-1-3 6 2 2zm3 5h-1l-2 3 1 1zm9 5l-3 4h1zm7 1l-2-1-3 6 2 1zm4 5l-1-1-2 4h1zm4 2l-1-1-2 5h1zm5 3l-1-1-2 4 1 1zm7 1l-2-2-4 6 2 2zm3 4h-1l-2 3 1 1zm5 2h-1l-2 4 1 1zm4 3h-1l-2 4h1zm7 1l-2-1-3 6 2 1zm4 5l-1-1-3 4 1 1zm4 2l-1-1-2 5h1zm5 3l-1-1-2 4 1 1zm6 0l-1-1-4 6 2 2zm4 5h-1l-2 4h1zm5 3l-1-1-2 4v1zm4 2h-1l-2 4h1zm7 1l-2-1-3 6 2 1zm4 5l-1-1-2 4 1 1zm4 2h-1l-2 4h1zm5 3l-1-1-2 4 1 1zm7 1l-2-1-4 6 2 1zm3 4h-1l-2 4h1zm5 3l-1-1-2 4 1 1zm4 2l-3 4h1zm7 1l-2-1-3 6 2 1z" class="an1"/><path fill="#C3987B" d="M294 181l7 8-5 3-5-4v-4z"/><path fill="#DFBDA5" d="M149 145l10-25 9 3 15 11-20 17z" class="an1"/><path fill="#8B6651" d="M183 134l-24-14 9-8z" class="an1"/><path fill="#8B6651" d="M294 181l-10-17-13-3-3 7 9 12z"/><path fill="#DFBDA5" d="M287 198l-15-11-4-19 26 13z"/><path fill="#2a2a2a" d="M249 336a4 4 0 00-7 0c0 2 1 3 3 3s4-1 4-3m-34-9c0-2-2-4-4-4a4 4 0 000 8c2 0 4-2 4-4"/><path fill="#338ea5" d="M242 325l-5 16 22 6 3-15zm-46 7l23 6 4-17-25-4zm67 22l-74-17 5-27 35 6-5 23 9 2 5-22 30 8z"/></g></svg>