<svg xmlns="http://www.w3.org/2000/svg" class="logistician" viewBox="0 0 533 533"><defs><clipPath id="a"><path d="M0 400h400V0H0z"/></clipPath><clipPath id="b"><path d="M96 19h202V-1H96z"/></clipPath><clipPath id="c"><path d="M0 400h400V0H0z"/></clipPath><clipPath id="d"><path d="M137 111h51V94h-51z"/></clipPath><clipPath id="e"><path d="M0 400h400V0H0z"/></clipPath></defs><g clip-path="url(#a)" transform="matrix(1.33333 0 0 -1.33333 0 533)"><g clip-path="url(#b)" opacity=".1"><path fill="#2b2c2b" d="M96 11l104 8 98-8-94-12z"/></g></g><path fill="#27788C" d="M249 518h30v-6l-54-6 18 14z"/><path fill="#27788C" d="M211 509l-10 8v6l48 1v-6z"/><path fill="#4F5253" d="M262 366l10-4 35 2-28 70-30 25-21-4 2-55z"/><path fill="#6F7173" d="M279 434l-21 52-12 5-18 5 16-54z"/><path fill="#318FA6" d="M258 486l21 26h-47l-1-10 5-13z"/><path fill="#6F7173" d="M250 403l-6 39-29 24-21-25-10-48 33-20z"/><path fill="#474747" d="M296 349l11 15-49 29-22-29z"/><path fill="#4F5253" d="M244 442l-8 47-12 12-18-7-12-53z"/><path fill="#3AA0BA" d="M236 489l13 29-48-1 5-23z"/><g clip-path="url(#c)" transform="matrix(1.33333 0 0 -1.33333 0 533)"><g clip-path="url(#d)"><path fill="#474747" d="M188 98l-48-4-3 17 25-8z"/></g></g><path fill="#DFBDA5" d="M292 10l-41 9-24 10-21-7h-29l7 15 13 7-7 18 2 19 7 23 13 19h-6l-5 5-3-10-9-17-15 4-10 6 15 26 11 13v10l7 12 5 5-1 6 19 12 30 12 8-8 4-11v-18l55-12-9-64 2-13-4-22-5-6z" class="an1"/><path fill="#C3987B" d="M202 26l13 44 9 40 15 64 23-4-2 9 2 9-12 19-49-24-12-24-7-22 19-9-5-10-1-10 8 3-11-30V64l5-20-11-9-9-13 16 1z" class="an1"/><path fill="#8B6651" d="M182 137l19-9-12 31-7-13zM262 170l-33 6 21 31 9-9 3-10z" class="an1"/><path fill="#C3987B" d="M231 99l2-18 17-4 9 18-35 15 36-3 7 6-10-52-30 17-4 11zm57-13V71l16-5 5 2-1 20-29 11 1 6 28-11 5-18-6-20-29 8 2 23z" class="an1"/><path fill="#8B6651" d="M267 113l8 6 6-9z" class="an1"/><path fill="#E8CAB6" d="M259 71l14-3 8 42-14 3z" class="an1"/><path fill="#367f90" d="M259 71l-3-4 1-6 14-2 4 4-2 5z" class="an1"/><path fill="#3b95aa" d="M227 78l22-5 5 21-23 5zm30-17l-42 9 2 15 3 9 4 16 41-8-6-31zm27 6l4 19 20-3-4-20zm-13-8l42-8 7 40-41 8-6-31z" class="an1"/><path fill="#8B6651" d="M253 139l42-8v3l-41 8zm-62-15l-8-16-9 4z" class="an1"/><path fill="#DDDDDC" d="M219 18l8 11 65-19-78-9z" class="an1"/><path fill="#c3c3c3" d="M177 22l-17 8-4 34 19-5 22-15z" class="an1"/><path fill="#DDDDDC" d="M156 64l-8 57 26-16 19-19 4-42z" class="an1"/><path fill="#a0a2a2" d="M195 89l12 24-11 5-8-18-21 12 14 24 8 23-40-38 11-9z" class="an1"/><path fill="#c3c3c3" d="M177 22l50 7-13-28z" class="an1"/><path fill="#367f90" d="M215 70l-55 42 6 14 1-14 52-25z" class="an1"/><path fill="#8B6651" d="M199 97l20-10v2l1 5-19 7z" class="an1"/><path fill="#797878" d="M189 101l10-4 2 4-10 4z" class="an1"/><path fill="#DDDDDC" d="M201 183l-4 19 41 23 17 5 13-14 7-18-13-10-12 19z"/><path fill="#c3c3c3" d="M275 198l18 6-14 29-18 24-43-20-37-23 16-12 58 28z"/><path fill="#1C7678" d="M181 214l63 34 8 2 9 7-42 49-38-63zm80 43l4-10 7-8 21-35 20 46-13 34-19 24-12 13-13-32z"/><path fill="#4F5253" d="M250 207l-10 16 15 7 10-15z"/><path fill="#737373" d="M255 230l-11 18 17 9 11-18z"/><path fill="#8e8f8e" d="M178 242l83 15 18 3-10 61 12 14-18 31-6 38-102-15z"/><path fill="#6F7173" d="M263 366l-103-5 2-18 67 6 14 7 9 2z"/><path fill="#44999a" d="M300 284l-31 37-1 11 13 4-6 12-12 18 44-2z"/><path fill="#76cacc" d="M181 214l1 92-42 33 8-105z"/><path fill="#369496" d="M182 304l45 16 5 2 6 1-4 31-7-3-7 1-80-13z"/><path fill="#e2e4e2" d="M227 320l11 3v15l-4 16-14-2z"/><path fill="#C3987B" d="M238 323l16-7 15 6-1 7h-12z"/><path fill="#369496" d="M293 204l40 60-15 13-18 7z"/><path fill="#77cccd" d="M300 284l33-20 27-18h5l4-5 11 10-2 14-1 9-49 38z"/><path fill="#e2e4e2" d="M369 241l11 11 7 14-10 8-17-28z"/><path fill="#8e8f8e" d="M395 190l9-19 3 21-7 1z"/><path fill="#8B6651" d="M377 252l10 14 8-5-3-27z"/><path fill="#535353" d="M395 190l12 2-10 89-12-1 1-14 8-11-3-24z"/><g clip-path="url(#e)" transform="matrix(1.33333 0 0 -1.33333 0 533)"><path fill="#2b2c2b" d="M186 338c0-2-2-3-4-3a3 3 0 100 6c2 0 4-1 4-3m39 7c0-2-1-3-3-3s-3 1-3 3 1 3 3 3 3-1 3-3" class="an2"/><path fill="#C3987B" d="M292 228l17-5-9-24-10 1 2 21z"/><path fill="#DFBDA5" d="M276 220l17 11 5-17-7-1-2 5-5-9zm-97-63l22-4 2-9 2-6-3-5-5-7-21 9z"/><path fill="#C3987B" d="M201 153l-4-27 7 5 7 17z"/></g></svg>
