<svg xmlns="http://www.w3.org/2000/svg" class="logician" viewBox="0 0 533 533"><defs><clipPath id="a"><path d="M0 400h400V0H0z"/></clipPath><clipPath id="b"><path d="M114 21h215V0H114z"/></clipPath><clipPath id="c"><path d="M0 400h400V0H0z"/></clipPath></defs><g clip-path="url(#a)" transform="matrix(1.33333 0 0 -1.33333 0 533)"><g clip-path="url(#b)" opacity=".1"><path fill="#2b2b2b" d="M114 8l112-8 103 12-101 9z"/></g></g><path fill="#594165" fill-rule="evenodd" d="M251 524l8-12-8-20-7 11 2 21zm92-10l5-16-6-11-7-6-3 13 5 20z"/><path fill="#ececeb" fill-rule="evenodd" d="M316 349l78 79-59-114-14 10z"/><path fill="#c4c4c4" fill-rule="evenodd" d="M321 344l73 84-44 41-22-63z"/><path fill="#8f8f8f" fill-rule="evenodd" d="M192 467l158 2-13-35-112-8z"/><path fill="#C3987B" fill-rule="evenodd" d="M269 491l2-50h-38l18 51 13 12zm83-14l-8-36h-36l27 40 13 16z"/><path fill="#8B6651" fill-rule="evenodd" d="M344 441l-28-8-8 8 7 10zm-74 43l-24-5 3 8z"/><path fill="#785d88" fill-rule="evenodd" d="M335 481l17-4 38 37h-35zm-84 11l18-1 18 33h-36z"/><path fill="#8f8f8f" d="M294 257l27 87 14-30 4-70z"/><path fill="#b3889d" fill-rule="evenodd" d="M148 58l-19 48-40 53 13-89z"/><path fill="#96637c" fill-rule="evenodd" d="M135 258l-42-29 39-12 15 5zm13-200L89 159l56-17z"/><path fill="#543042" fill-rule="evenodd" d="M202 186l-67 72-6-97z"/><path fill="#734c5f" fill-rule="evenodd" d="M89 159l40-20 30 10 28 17 15 20z"/><path fill="#543042" fill-rule="evenodd" d="M129 139l54 28-23-36z"/><path fill="#785d88" fill-rule="evenodd" d="M233 334l58-4 27 24 26 87h-73z"/><path fill="#dddddc" fill-rule="evenodd" d="M275 196l27 67 37-19 1-9-38-44z"/><path fill="#DFBDA5" fill-rule="evenodd" d="M279 30l9 7 40 110-44 19-17 55-42-23-53-64-15-89 89-40z"/><path fill="#C3987B" fill-rule="evenodd" d="M267 221l8-15h-3l-21-19-44-112-17-13-33 78 26 27 8 4 11 15 23 25 19 10z"/><path fill="#8B6651" fill-rule="evenodd" d="M233 189l39 17 9-17 3-23z"/><path fill="#b3889d" d="M152 43l16 25 22-6 49-18 15-17-8-27z"/><path fill="#8B6651" fill-rule="evenodd" d="M183 167l8-11 11 30z"/><path fill="#DFBDA5" fill-rule="evenodd" d="M183 167l13-17-29-33-10 23z"/><path fill="#8B6651" fill-rule="evenodd" d="M170 129l11 14-19-4z"/><path fill="#fff" fill-rule="evenodd" d="M203 157l-6 6-12-13 6-6z"/><path fill="#8B6651" d="M289 115l-5 8-11-3z"/><path fill="#734c5f" d="M219 81l8-1 5-7h12l-16-4zm51-16l7-2 4-9h9l-12-4z"/><path fill="#594165" d="M250 145l16-4 14 4-8-9-6 2-3-3z"/><path fill="#9075a0" d="M251 145l9 3 15-4-9-3z"/><path fill="#C3987B" d="M301 95l-16 11-4-7zm-70 25l40-6v-11zm-9-25h33l-4-11zm71-26l-9 15-4-10z"/><path fill="#96637c" d="M239 44l40-14-33-30z"/><path fill="#734c5f" fill-rule="evenodd" d="M167 117l24 27 11-15-27-33 15-34-38-19-23 96h19l9 1z"/><path fill="#ececeb" fill-rule="evenodd" d="M236 245l-5 20 34 16 12-6-23-28zm38-44l36 58 14-42z"/><path fill="#c4c4c4" fill-rule="evenodd" d="M302 191l47-32 44 7-53 69z"/><path fill="#a3a3a3" fill-rule="evenodd" d="M393 166l4-60-16-12-32 65z"/><path fill="#ececeb" fill-rule="evenodd" d="M377 54l-14-37-14 4 7 37-14 51 12 10 28-8 28-7 5-15z" class="an1"/><path fill="#785d88" d="M410 91l-21-20-35 10-7 27 8 6 51-14z" class="an1"/><path fill="#DFBDA5" fill-rule="evenodd" d="M374 57l9-21 19 30-2 10-11-5z" class="an1"/><path fill="#C3987B" fill-rule="evenodd" d="M361 53l14 22 14-4-6-35z" class="an1"/><path fill="#a688ba" fill-rule="evenodd" d="M363 104l-2 5-5-3 2-4zm-4-8l-1 2-2-1 1-2zm9 7l-1 2-2-1 1-2zm0-7l-1 2-2-1 1-2z" class="an2"/><path fill="#9075a0" fill-rule="evenodd" d="M275 339l69 101-23-96-22-7z"/><path fill="#594165" fill-rule="evenodd" d="M308 290l-6-27-32 11 5 65 46 5z"/><path fill="#594165" d="M167 117l-6 12-4-16 56-22 6 15z"/><path fill="#E8CAB6" d="M289 115l-16 5-18-45 16-5z"/><path fill="#594165" d="M313 83l-25 9-8-18 26-9zm-83 30l-8-18 29-11 8 19zm54-12l39-14-13-32-97 36 13 31 42-15-10-25 16-6z"/><path fill="#dddddc" fill-rule="evenodd" d="M225 211l33 41 7 29 10 58-5 145-78-17 50-137-50-87z"/><path fill="#c4c4c4" fill-rule="evenodd" d="M275 339l-83 128 41-133 22-4z"/><path fill="#8f8f8f" fill-rule="evenodd" d="M277 275l-33 6-24 23 13 30 42 5 2-64z"/><path fill="#ececeb" fill-rule="evenodd" d="M225 211l-7 40 40 1-12-19z"/><path fill="#9075a0" fill-rule="evenodd" d="M267 221l-8 14-11 5-23-29z"/><path fill="#594165" fill-rule="evenodd" d="M267 221l-19 19 10 12 12-11z"/><path fill="#9DA1A2" fill-rule="evenodd" d="M192 243l28 61 90-45-26-8-26 1z"/><path fill="#c4c4c4" fill-rule="evenodd" d="M310 259l-8-68-10-11h-12l-22 72z"/><path fill="#C3987B" fill-rule="evenodd" d="M280 180l11-35 18 9 9 15-16 22zM291 145l24-7 13 9-15 6z"/><path fill="#DFBDA5" fill-rule="evenodd" d="M291 145l37 2 2 17-12 5z"/><g clip-path="url(#c)" transform="matrix(1.33333 0 0 -1.33333 0 533)"><path fill="#2b2b2b" fill-rule="evenodd" d="M189 327a3 3 0 10-7 0 3 3 0 007 0m36 13a3 3 0 10-7 0 3 3 0 007 0"/></g></svg>
