<svg xmlns="http://www.w3.org/2000/svg" class="mediator" viewBox="0 0 533 533"><defs><clipPath id="a"><path d="M0 400h400V0H0z"/></clipPath><clipPath id="b"><path d="M95 22h179V-1H95z"/></clipPath><clipPath id="c"><path d="M0 400h400V0H0z"/></clipPath></defs><path fill="#14896a" d="M313 334l-37-9-31-12-14 23-20 22 13 13 7 18-19 5-36 2 10 6 3 6 30 25 38 37 6 2 7 10 2-14 5-11 19-73z"/><path fill="#2ba549" d="M369 268l-24 11-34 6-4-18 2-20-16 3-14-2h-10l-13-2-21-5-23-14-9 22-21 39 7 14 9 37 5-37 9-23 6-4 12-1 9 15 2 13 3 5 1 6 31 7 37 14 30-29 34-25-6-5z"/><path fill="#fddac6" d="M354 31l-8-1-5-5-24-9-22-14-35 15-31 7-5 21-12 25-3 7-4 5v32l-5 59-9 16-15 19 19 7 17 12 20 11 24 8 16 3 7-1 20 2 10-3 10-2 11 2-11-16-11-24 10-22 14-20 22-10 26-9-19-49-13-53 1-8z"/><g clip-path="url(#a)" transform="matrix(1.33333 0 0 -1.33333 0 533)"><g clip-path="url(#b)" opacity=".1"><path fill="#2b2c2b" d="M274 9l-81 13-98-10 76-13z"/></g></g><path fill="#DFBDA5" d="M332 165l48-19-32-102-13-6-12-7-20-7-14 22-3-2-6 13 28 117z"/><path fill="#e6e97b" d="M348 44l-7-19-46-23-3 22h11l20 7 12 7z"/><path fill="#d8e157" d="M295 2l-66 22-17 46-7 12 19-6 18-6 19-7 19-6 9-11 14-22z"/><path fill="#b8c644" d="M280 57l-19 6-19 7-18 6-19 6-5 91 74-103z"/><path fill="#C3987B" d="M323 70l10 26 17-31zm-6 1l-23 17 19 3 18 21zm-37-14l28 117-4 4-11 1-7-9-6-13-3-35z"/><path fill="#8B6651" d="M338 110l-2 7-5-5z"/><path fill="#b8c644" d="M317 71l-22 10-1 7zm6-1l25-9 2 4z"/><path fill="#8B6651" d="M293 179l15 28 24-42-24 9z"/><path fill="#E8CAB6" d="M317 71l14 41 7-2-15-40z"/><path fill="#e6e97b" d="M274 70l-18 176 23 2 1-91V57z"/><path fill="#d8e157" d="M270 101l-58 126-36-19 24-35 74-103zm10 56l28 50 22 40-51 1z"/><path fill="#b8c644" d="M270 101l-58 126 44 19 5-50 8-38z"/><path fill="#99c16d" d="M360 121l-20 14h-25l28 7z"/><path fill="#59763e" d="M360 121l-8 3-11 2-7 2-8 5-11 2h25z"/><path fill="#36785e" d="M354 31l-13-6-6 13 13 6z"/><path fill="#55b08a" d="M335 38l-12-7-7 13 13 6z"/><path fill="#36785e" d="M317 44l-13-6-6 13 13 6z"/><path fill="#55b08a" d="M298 51l-12-7-7 13 13 6z"/><path fill="#36785e" d="M280 57l-13-6-6 12 13 7z"/><path fill="#55b08a" d="M261 63l-12-6-7 13 13 6z"/><path fill="#36785e" d="M243 70l-13-7-6 13 13 6z"/><path fill="#55b08a" d="M224 76l-12-6-7 12 13 7z"/><path fill="#59763e" d="M280 94l-10 7-2 22 12-8z"/><path fill="#99c16d" d="M280 115l-12 8-1 17 13-8z"/><path fill="#59763e" d="M280 132l-13 8-2 18 15-9z"/><path fill="#99c16d" d="M280 149l-15 9-2 20 17-10z"/><path fill="#59763e" d="M280 168l-17 10-2 18 19-10z"/><path fill="#728c57" d="M309 247l4 87-57-88 23 2z"/><path fill="#99c16d" d="M311 285l58-17 6 5 2 7-64 54z"/><path fill="#DFBDA5" d="M369 268l9-9 12 9 13-21h3l-6 28-23 5z"/><path fill="#8B6651" d="M374 264l26 11 5-13 1-15h-3l-9 11-4 10-6-7-6-2z"/><path fill="#59763e" d="M212 227l29 75 18 5 36-2-39-59z"/><path fill="#99c16d" d="M295 305l-54-3 4 11 26 19 42 2z"/><path fill="#728c57" d="M212 227l-30 61 48-14z"/><path fill="#99c16d" d="M212 279l-14 60-10-16 1-14-7-21z"/><path fill="#DFBDA5" d="M198 339l-12 1-15-4 18-27z"/><path fill="#55b08a" d="M245 313l-34 45 45 7 57-31z"/><path fill="#3f8e6f" d="M211 358l20 31-11 32 57 36 36-123z"/><path fill="#36785e" d="M231 389l-55 7 6 8 7 4 69 62 3 4 9 8 7-25z"/><path fill="#DFBDA5" d="M176 396l-17-6-10 52 40-34z"/><path fill="#C3987B" d="M161 432l4 23-16-13z"/><path fill="#DFBDA5" d="M258 470l-20 15 19 39 13-42z"/><path fill="#C3987B" d="M257 524h23l-19-13z"/><path fill="#8B6651" d="M176 396l5 19 8-7zm94 86l-17-8 4-4z"/><path fill="#C3987B" d="M186 340l-25-21-5 17 12 6z"/><path fill="#3f8e6f" d="M450 41L429 4l-9 34z" class="an3"/><path fill="#55b08a" d="M420 38l-33-8 20 35z" class="an3"/><path fill="#728c57" d="M449 54l-29-16 4 11 7 7z" class="an3"/><path fill="#99c16d" d="M420 38l-1 33 12-15z" class="an3"/><path fill="#3f8e6f" d="M135 44l20-36 9 33z" class="an2"/><path fill="#55b08a" d="M164 41l33-8-20 35z" class="an2"/><path fill="#728c57" d="M135 57l29-16-5 13-6 5z" class="an2"/><path fill="#99c16d" d="M164 41l1 33-12-15z" class="an2"/><path fill="#3f8e6f" d="M132 247l-6-42-21 29z" class="an1"/><path fill="#55b08a" d="M105 234l-27-19 6 40z" class="an1"/><path fill="#728c57" d="M127 259l-22-25 1 12 3 9z" class="an1"/><path fill="#99c16d" d="M105 234l-12 31 16-10z" class="an1"/><path fill="#59763e" d="M418 247h-20v-20h20z"/><path fill="#728c57" d="M411 275v25h-5v-25z"/><path fill="#b8c644" d="M408 227l2-24-28 7 16 17zm-10 4l-27-12-9 24 36-4zm0 12l-31 7 23 18 13-21h-5zm8 4l-6 28h24l-11-28zm12 0l19 25 15-15-34-16zm0-9l36 9 4-21-40 7zm0-8l31-16-21-13-17 26h7z"/><path fill="#d8e157" d="M408 227l-10 10 10 10 10-10z"/><g clip-path="url(#c)" transform="matrix(1.33333 0 0 -1.33333 0 533)"><path fill="#2a2a2a" d="M258 342c-2 0-4-2-4-4s2-4 4-4 4 2 4 4-2 4-4 4m-27-9c-2 0-4-2-4-5 0-2 2-4 4-4 3 0 4 2 4 4 0 3-1 5-4 5"/></g></svg>