<svg xmlns="http://www.w3.org/2000/svg" class="protagonist" viewBox="0 0 533 533"><defs><clipPath id="a"><path d="M0 400h400V0H0z"/></clipPath><clipPath id="b"><path d="M68 37h260V0H68z"/></clipPath><clipPath id="c"><path d="M0 400h400V0H0z"/></clipPath></defs><g clip-path="url(#a)" transform="matrix(1.33333 0 0 -1.33333 0 533)"><g clip-path="url(#b)" opacity=".1"><path fill="#2b2b2b" d="M328 15l-27 5-106 17L95 20l-27-9L239 0z"/></g></g><path fill="#436124" d="M370 465l-6-148-8-50-77-32-99 55-37 194 34 29h194l31-6z" class="an4"/><path fill="#3f8f6f" d="M340 442l-43 18 6 32h23l14-13z"/><path fill="#54b08b" d="M340 479l28 28-27 6-38-6v-15z"/><path fill="#3f8f6f" d="M368 519h-65v-12h55l21-8z"/><path fill="#36785d" d="M340 442l-39 34-4-16 22-18z"/><path fill="#b8c745" d="M186 143l-45 30-3 37 31 55 212-19-7-82-22-14z"/><path fill="#e8f177" d="M352 150l-166-7-45 30-3 37 26-18 192-15 18-13z"/><path fill="#3f8f6f" d="M240 462l-7 27-22 3-20-8 3-32z"/><path fill="#54b08b" d="M191 484l-14 29h57l-1-24z"/><path fill="#3f8f6f" d="M234 523h-57v-10l28-9 29 9z"/><path fill="#36785d" d="M194 452l42 24 4-14-14-12z"/><path fill="#59753c" d="M272 340l-32 102 34 28 66-28V342l-26-11z"/><path fill="#709d52" d="M203 364l-9 88 80 18-2-130z"/><path fill="#59753c" d="M340 207l16-30 56 85-74 28-5-16zm-141-27l52 27 47 36-26 97h-67v-23l-28-72z"/><path fill="#709d52" d="M279 235l-7 82v23h68v-32l16-131-33-4-1 14h-14l-8 31z"/><path fill="#59753c" d="M180 290l-22-24-32 241 23-15 11-21z" class="an5"/><path fill="#709d52" d="M177 513l-51-6 34-36z"/><path fill="#99c26d" d="M205 340h135v25l-137-1z"/><path fill="#728d55" d="M158 266l6-74 41-15 11-2-13 46 5 55z"/><path fill="#34785c" d="M278 223l19-19 11-17 19 2-1 29-47 17-11-10z"/><path fill="#54b08b" d="M278 223l1 12-76-14-4-41 17-5 19 21z"/><path fill="#2b2b2b" d="M211 177l-4-74-9-18-17 8-4 94zm140-93l5 93-27-3-5-99z"/><path fill="#DFBDA5" d="M327 189l-87-4-25-17-12-135 137-6z"/><path fill="#C3987B" d="M314 189l-89-12-11-131-16-25 14 163 3 21 63 18 33-16z"/><path fill="#8B6651" d="M265 134l13 9 12-9z"/><path fill="#C3987B" d="M225 100l26 9 14 25 7-41-38-3zm65 34l19-25 22-9-10-5-17-2h-21v26z"/><path fill="#E8CAB6" d="M290 134l-12 3-13-3 7-41h11z"/><path fill="#474747" d="M283 93l38 2 10 5-10-15zm-11 0l-38 2-9 5 9-15z"/><path fill="#8B6651" d="M282 213l32-24-102-5z"/><path fill="#4f5253" d="M234 0l-22 17-29 7-2 69 24 19 11-83 64 29 59-19-4 47 16-2 5-51-29-12-17-21z"/><path fill="#6f7173" d="M183 24l31 22 66 12-46-58z"/><path fill="#C3987B" d="M222 144l108 6-3 39-102-4z"/><path fill="#474747" d="M280 58l58-12 18-13-46-33z"/><path fill="#8B6651" d="M241 156l10-1-11 11z"/><path fill="#8B6651" stroke="#8B6651" stroke-miterlimit="10" stroke-width="5.3" d="M244 159l5 6h31"/><path fill="#8B6651" d="M222 144l-14-5 4 45 13 1z"/><g clip-path="url(#c)" transform="matrix(1.33333 0 0 -1.33333 0 533)"><path fill="#2b2b2b" d="M233 318a5 5 0 10-10 0 5 5 0 0010 0m-44 0a5 5 0 10-10 0 5 5 0 0010 0"/><path fill="#c4c4c4" d="M243 15h-11v225h11z" class="an1"/><path fill="#dddddc" d="M248 241a10 10 0 10-20 0 10 10 0 0020 0" class="an1"/><path fill="#c4c4c4" d="M220 11l18-9 10 18-5 152h-23z" class="an1"/><path fill="#9DA1A2" d="M255 172h-17V2l17 9z" class="an1"/><path fill="#dddddc" d="M273 162l11 12-11 11-10-10h-17l-8 8-8-8h-16l-10 10-12-11 12-12 6 7h20l8-7 8 7h21z" class="an1"/><path fill="#54b08b" d="M118 200l36-38 59 10 2 18-8 8z" class="an3"/><path fill="#DFBDA5" d="M213 172l-6 26 25 7z" class="an3"/><path fill="#54b08b" d="M309 204l-50-6-10-10 7-13 25-4z" class="an2"/><path fill="#DFBDA5" d="M232 205l-4-16 2-14h26l3 23z" class="an2"/><path fill="#C3987B" d="M232 205l-2-30-17-3 3 19z" class="an2"/></g></svg>
