<svg xmlns="http://www.w3.org/2000/svg" class="virtuoso" viewBox="0 0 533 533"><defs><clipPath id="a"><path d="M0 400h400V0H0z"/></clipPath><clipPath id="b"><path d="M91 23h227V0H91z"/></clipPath><clipPath id="c"><path d="M0 400h400V0H0z"/></clipPath><clipPath id="d"><path d="M147 175h97v-31h-97z"/></clipPath><clipPath id="e"><path d="M0 400h400V0H0z"/></clipPath></defs><path fill="#4f5253" fill-rule="evenodd" d="M140 161l14-7 19 38-14 7z"/><path fill="#858686" fill-rule="evenodd" d="M180 149l-60 29 2 33 71-33z"/><path fill="#6F7173" fill-rule="evenodd" d="M122 211l18 3 65-29-8-9-8 1z"/><path fill="#4f5253" fill-rule="evenodd" d="M200 249l-27-57-14 7 27 57z"/><path fill="#6f7173" fill-rule="evenodd" d="M180 149l7-1h10l8 37-16-8z"/><g clip-path="url(#a)" transform="matrix(1.33333 0 0 -1.33333 0 533)"><g clip-path="url(#b)" opacity=".1"><path fill-rule="evenodd" d="M91 9l90 14 137-8L200 0z"/></g></g><path fill="#856400" fill-rule="evenodd" d="M335 368l-14 37-14 16-2 26-10 23-16 8-21 5 9-70z"/><path fill="#9d782c" fill-rule="evenodd" d="M262 467l40-13-7 16-17 13h-20v-6z"/><path fill="#755924" fill-rule="evenodd" d="M295 470l31 35-36 4-41-4v-18z"/><path fill="#BC8F2D" fill-rule="evenodd" d="M249 513h77v-8h-77z"/><path fill="#9e7900" fill-rule="evenodd" d="M311 414l-18-2-9 36 21-1 6-16z"/><path fill="#b58b00" fill-rule="evenodd" d="M293 412l18 19 10-26z"/><path fill="#9e7700" fill-rule="evenodd" d="M274 419l-16 64-11 4-40 8-8-100z"/><path fill="#bf8f00" fill-rule="evenodd" d="M335 368l-61 51-75-24 42-10z"/><path fill="#e5c82e" fill-rule="evenodd" d="M216 208l63 15 38 105 9 19-104 6-24 7-2-20z"/><path fill="#bf8f00" fill-rule="evenodd" d="M189 225l27-17 17 77-15 1-19-35zm7 115l75-51 40 16 16 44-104 7-25 4z"/><g clip-path="url(#c)" transform="matrix(1.33333 0 0 -1.33333 0 533)"><g clip-path="url(#d)" opacity=".2"><path fill="#2b2b2b" fill-rule="evenodd" d="M199 157l19-11 26-2-4 10-33 21-30-14-30-16z"/></g></g><path fill="#ccad14" fill-rule="evenodd" d="M321 256l11 6-6 16-15 27v-33l2-12z" class="an3"/><path fill="#4f5253" fill-rule="evenodd" d="M267 278l23 61 30-11-24-62z" class="an3"/><path fill="#856400" fill-rule="evenodd" d="M327 349l-31 1-8 8-10-7-41 2v16l3 18 41-8 7-7 11 3 36-7z"/><path fill="#ccad14" fill-rule="evenodd" d="M278 351l3 28 18-4-3-25z"/><path fill="#DFBDA5" fill-rule="evenodd" d="M326 82l4 50-3 48-39 12-19 20h-29l-24-4-16-37-13-23-13-26-5-43 40 14 57-5 14-19 15 14z"/><path fill="#C3987B" fill-rule="evenodd" d="M222 94l7 50-11 8-12-6-5-20 11-1-3-30zM273 139l-18-28-33-17 49-9zm26-10l8-27 16-20-34-1z"/><path fill="#C3987B" fill-rule="evenodd" d="M330 132l-143 16 29 60 19 5 17 3 27 7 5-19 6-11 45-6z"/><path fill="#B48C71" fill-rule="evenodd" d="M229 144l7 55 14 5 5 14-5 16-34-26-21-42-1-9-7-9 19-2z"/><path fill="#8B6651" fill-rule="evenodd" d="M290 193l-61 7 21 34 29-11zm-84-47l-11 20-8-18zm36 12l57 8v4l-57-7zm31-19l15 7 11-10h-13z"/><path fill="#484748" fill-rule="evenodd" d="M222 94l47 8-1-13h-18zm74 6l-2-15 13-3h16z"/><path fill="#2b2b2b" fill-rule="evenodd" d="M239 110l21 2v5l-22-3z"/><path fill="#484748" fill-rule="evenodd" d="M209 95l3 30-11 1-3-14-24 10-19-41 31 1z"/><path fill="#8B6651" fill-rule="evenodd" d="M183 126l9-4 5 17z"/><path fill="#9e7700" fill-rule="evenodd" d="M205 41l-20 1-17 4-8 15-5 20 32-23z"/><path fill="#856400" d="M263 0l-45 18-50 28 20-3 17-2 52-2 62-9-56-30z"/><path fill="#bf8f00" d="M263 0l-80 6-15 40 95-46z"/><path fill="#9e7700" fill-rule="evenodd" d="M168 46l-24-23-31 28 26-1z"/><path fill="#bf8f00" fill-rule="evenodd" d="M113 51L68 92l66-29 34-17z"/><path fill="#755800" fill-rule="evenodd" d="M68 92l87-11 13-35z"/><path fill="#e5c82e" fill-rule="evenodd" d="M205 41l140-14 6 53-57 5-14-16-12 20-59 6-4-31z"/><path fill="#474747" fill-rule="evenodd" d="M221 52l51-5-15 29-34 3zm113-11l-51 5 20 25 34-3z"/><path fill="#ccad14" fill-rule="evenodd" d="M209 95l-54-14 50-40z"/><g clip-path="url(#e)" transform="matrix(1.33333 0 0 -1.33333 0 533)"><path fill="#2b2b2b" d="M235 318a5 5 0 10-10 0 5 5 0 0010 0"/><path fill="#E8CAB6" fill-rule="evenodd" d="M210 348l11-12 4-38-20-2-4 37z"/><path fill="#ccad14" fill-rule="evenodd" d="M130 181l-17 36 29 14 21-46-11-10z"/><path fill="#e5c82e" fill-rule="evenodd" d="M176 159l-29-14-17 36 33 4 12-12z"/><path fill="#DFBDA5" fill-rule="evenodd" d="M200 192l-37-7 13-26 31 16 1 8z"/><path fill="#C3987B" fill-rule="evenodd" d="M207 175l26-4-6 20-5 10-9-1-13-8z" class="an4"/><path fill="#8B6651" fill-rule="evenodd" d="M233 171l8 16v21l-10-1-9-6z" class="an4"/><path fill="#846528" fill-rule="evenodd" d="M194 38l6-23h-45v14z"/><path fill="#ccae2d" fill-rule="evenodd" d="M155 9h45v6h-45z"/><path fill="#bf8f00" fill-rule="evenodd" d="M197 50l-43-6 1-15 39 9z"/><path fill="#ccad14" fill-rule="evenodd" d="M178 135h-11l2-44 6-48 11 5zM136 108l10-13 21 40-30-8z"/><path fill="#4f5253" fill-rule="evenodd" d="M131 160l7-3-4-13-7-5v10zm-31-5h8l11-16-11-2z"/><path fill="#858686" fill-rule="evenodd" d="M134 144l25-39-2-7-20 23-9 21z"/><path fill="#6f7173" fill-rule="evenodd" d="M110 140l7 4 6 4-10 16 18-4-3-18 29-44-7-4-6-5-29 44-19 4 4 18z"/><path fill="#e5c82e" fill-rule="evenodd" d="M175 43l-47 2-6 77 24-25 21 38z"/><path fill="#C3987B" fill-rule="evenodd" d="M273 200l14 11v15l-12-11z" class="an2"/><path fill="#6F7173" fill-rule="evenodd" d="M188 224l86 34 7-15 6-17-87-34z" class="an2"/><path fill="#4f5253" fill-rule="evenodd" d="M274 258l14-7 3-6 2-6-6-13z" class="an2"/><path fill="#484748" fill-rule="evenodd" d="M288 251l12 5v-7l-2-8-5-2z" class="an1 an2"/><path fill="#4f5253" fill-rule="evenodd" d="M274 258l14-7 3-6 2-6-6-13z" class="an2"/><path fill="#737474" fill-rule="evenodd" d="M300 256l10 4 1-6-3-8-10-5z" class="an1 an2"/><path fill="#484748" fill-rule="evenodd" d="M310 260l10 4v-7l-2-7-10-4z" class="an1 an2"/><path fill="#737474" fill-rule="evenodd" d="M320 264l10 4v-7l-2-8-10-3z" class="an1 an2"/><path fill="#484748" fill-rule="evenodd" d="M330 268l10 4-1-7-2-8-9-4z" class="an1 an2"/><path fill="#737474" fill-rule="evenodd" d="M340 272l9 3-3-14-9-4z" class="an1 an2"/><path fill="#C3987B" fill-rule="evenodd" d="M233 171l21 42 16 2 3-15-9-35z" class="an2"/><path fill="#8B6651" fill-rule="evenodd" d="M254 213l15 7 18 6-14-26z" class="an2"/><path fill="#DFBDA5" fill-rule="evenodd" d="M254 213l5 21 20 10 8-18z" class="an2"/><path fill="#4f5253" fill-rule="evenodd" d="M222 223l-21-8-1 3 21 8zm2-5l-21-8-1 3 21 8zm2-6l-21-8-1 3 21 8z" class="an2"/></g></svg>