<svg version="1" xmlns="http://www.w3.org/2000/svg" width="266.667" height="266.667" viewBox="0 0 200.000000 200.000000"><path d="M43.1 25.2c-1.2 2-8.5 14.6-19.3 33.8-1.4 2.5-7.4 12.4-13.2 22C4.8 90.6 0 99.4 0 100.6c0 1.1 3.9 8.8 8.7 17 4.7 8.2 9.2 16.1 10 17.6.8 1.6 2.2 2.8 3.1 2.9.9 0 10.9.1 22.2.1l20.5.1 11.4 19.2 11.4 19.3h45.6l45.7-.1 10.7-19.5 10.8-19.5-3.9-6.6c-2.2-3.6-7-11.8-10.7-18.1-3.7-6.3-7.5-12.4-8.5-13.5-.9-1.1-3.2-4.7-5-8-1.8-3.3-5.8-10.3-8.9-15.5-3.1-5.2-6.1-10.4-6.6-11.5-1-1.9-2.1-2-22.8-2.1-12-.1-22.2-.5-22.7-1s-3.6-5.9-7-11.9c-3.3-6.1-7-12.6-8.1-14.5-1.1-1.9-3-5.4-4.1-7.8L89.6 23H67c-22.3 0-22.5 0-23.9 2.2z"/></svg>