<svg xmlns="http://www.w3.org/2000/svg" viewBox="0 0 508 469.2"><defs/><path fill="#fa1ea4" d="M103 75l-43 72v8l40 69h88l43-76h-83l-45-73z"/><path fill="#8a88ce" d="M103 75l43-75h87l42 75H103z"/><path fill="#732e9d" d="M103 75h84l41 73h-80l-45-73z"/><path fill="#3f37ab" d="M226 148h5l44-73h-89l40 73z"/><path fill="#732e9d" d="M274 76h87l42 73-44 74h-4l-40-72-85-1 44-74z"/><path fill="#a21a99" d="M188 224l42-75 85 2 40 72-167 1z"/><path fill="#fa80c9" d="M185 224l45 75 90-1-41-75-93 1"/><path fill="#aa4eac" d="M278 223h81l-43 68-38-68z"/><path fill="#ae85c3" d="M403 149h2l43 74-42 76-86-1-4-7 87-142z"/><path d="M79 354h21v17H79zm-10 26v16h12v31H69v17h41v-17h-10l-1-48-30 1zm41 1l22 62h20l22-63h-19l-13 38-12-38h-20v1zm138-1v64h17v-37s3-6 9-8l9-3v-18s-12 1-17 9h-1v-7zm98 0v16h12v31h-12v17h39v-17h-9v-47h-30zm8-26h22v17h-22zm-36 25l15 3c1 1 4 14-4 13l-14-1c-8 0-7 6-1 8 8 2 20 8 22 14s2 22-10 25-30 4-34-1c-3-4 1-15 1-16s9 6 18 6 9-9 1-11c-10-2-22-8-22-21 0-12 8-17 28-19zm107-26a48 48 0 0113 2c6 2-2 14-5 15h-9l-2 5c0 4 1 4 2 5h11v17h-13v30h13v17h-42v-17h10v-31h-10v-16h10s0-14 2-16 3-9 20-11zm19 27h18l13 37 13-37h20l-26 69s-11 21-22 20c0 0-13 2-13-8 0-4 2-7 5-9h9s9-4 0-22-17-50-17-50zm-235-1s31 0 27 38h-41c-1 0 9 19 32 8 0 0 3-1 4 5s1 10-1 10c0 0-2 4-21 4s-30-9-32-32c-2-22 18-34 32-33z"/><path fill="#fcfcfc" d="M196 403h22s-2-10-11-10-11 10-11 10z"/><path d="M39 354v24s-40-1-39 35c0 32 20 31 23 31s9 1 16-8h1s0 7 3 7h14v-89z"/><path fill="#fff" d="M32 396s-13 1-13 17 8 15 8 15a14 14 0 0011-10s3-24-6-22z"/></svg>