<svg xmlns="http://www.w3.org/2000/svg" xmlns:xlink="http://www.w3.org/1999/xlink" viewBox="0 0 978.9 299"><defs/><path d="M492 109c9 0 17 4 22 10V88h17v89h-17v-10c-4 6-12 11-22 11-17 0-30-14-30-35s13-34 30-34zm4 15c-9 0-17 7-17 19s8 20 17 20c10 0 18-7 18-20s-8-19-18-19z"/><use xlink:href="#B"/><path d="M592 110l16 51 17-51h18l-24 67h-21l-24-67zm90 68c-20 0-34-14-34-35s14-34 34-34c19 0 32 13 32 33a39 39 0 010 6h-49c1 10 8 16 16 16s11-4 14-8h18c-4 12-15 22-31 22zm-17-41h32c0-9-7-14-16-14-8 0-14 5-16 14zm78 40h-16v-67h16v10c5-7 13-11 21-11v18h-5c-10 0-16 4-16 16zm58 1c-17 0-29-10-29-22h16c1 5 6 8 12 8 7 0 11-3 11-6 0-12-38-5-38-29 0-11 10-20 26-20s26 9 27 22h-16c0-5-5-9-11-9s-10 3-10 7c0 12 37 4 38 29 0 11-10 20-26 20z"/><use x="293" xlink:href="#B"/><path d="M876 124h-8v-14h8v-3c0-17 9-24 28-24v15c-8-1-11 2-11 9v3h11v14h-11v53h-17zm85-14h18l-41 98h-18l14-33-26-65h18l18 47z"/><path fill="#fa1ea4" d="M43 75L0 147v8l40 69h88l43-76H88L43 75z"/><path fill="#8a88ce" d="M43 75L86 0h87l42 75H43z"/><path fill="#732e9d" d="M43 75h84l41 73H88L43 75z"/><path fill="#3f37ab" d="M166 148h5l44-73h-89l40 73z"/><path fill="#732e9d" d="M214 76h87l42 73-44 74h-4l-40-72-85-1 44-74z"/><path fill="#a21a99" d="M128 224l42-75 85 2 40 72-167 1z"/><path fill="#fa80c9" d="M125 224l45 75 90-1-41-75-93 1"/><path fill="#aa4eac" d="M218 223h81l-43 68-38-68z"/><path fill="#ae85c3" d="M343 149h2l43 74-42 76-86-1-4-7 87-142z"/><defs><path id="B" d="M546 92c0-5 4-9 10-9s10 4 10 9-4 10-10 10-10-4-10-10zm1 18h17v67h-17z"/></defs></svg>
