<svg xmlns="http://www.w3.org/2000/svg" xmlns:xlink="http://www.w3.org/1999/xlink" viewBox="0 0 517.2 482"><defs/><path d="M30 383c9 0 18 4 22 10v-31h17v89H52v-10c-4 6-11 11-22 11-17 0-30-14-30-35s13-34 30-34zm5 15c-9 0-18 7-18 19s9 20 18 20 17-7 17-20-8-19-17-19z"/><use xlink:href="#B"/><path d="M130 384l17 51 17-51h17l-24 67h-21l-24-67zm90 68c-19 0-33-14-33-35s13-34 33-34c19 0 33 13 33 33a39 39 0 01-1 6h-48c0 10 7 16 16 16 7 0 11-4 13-8h18c-4 12-15 22-31 22zm-16-41h31c0-9-7-14-16-14-8 0-14 5-15 14zm78 40h-17v-67h17v10c4-7 12-11 20-11v18h-4c-10 0-16 4-16 16zm57 1c-17 0-28-10-29-22h17c0 5 5 9 12 9 6 0 10-3 10-7 0-12-38-5-38-29 0-11 10-20 27-20 16 0 25 9 26 22h-16c0-5-4-9-11-9-6 0-9 3-9 7 0 12 37 4 37 29 0 11-10 20-26 20z"/><use x="293" xlink:href="#B"/><path d="M414 398h-8v-14h8v-3c0-17 9-24 28-24v15c-8-1-11 2-11 9v3h12v14h-12v53h-17zm85-14h18l-41 98h-18l15-33-27-65h19l17 47z"/><path fill="#fa1ea4" d="M106 75l-43 72v8l40 69h88l43-76h-83l-45-73z"/><path fill="#8a88ce" d="M106 75l43-75h87l42 75H106z"/><path fill="#732e9d" d="M106 75h84l41 73h-80l-45-73z"/><path fill="#3f37ab" d="M229 148h5l44-73h-88l39 73z"/><path fill="#732e9d" d="M278 76h86l42 73-44 74h-4l-40-72-85-1 45-74z"/><path fill="#a21a99" d="M191 224l42-75 85 2 40 72-167 1z"/><path fill="#fa80c9" d="M188 224l45 75 90-1-41-75-93 1"/><path fill="#aa4eac" d="M281 223h81l-43 68-38-68z"/><path fill="#ae85c3" d="M406 149h2l43 74-42 76-86-1-4-7 87-142z"/><defs><path id="B" d="M84 366c0-5 4-9 10-9s11 4 11 9-5 10-11 10-10-4-10-10zm2 18h16v67H86z"/></defs></svg>