<svg xmlns="http://www.w3.org/2000/svg" viewBox="0 0 517.2 125.5"><defs/><path d="M30 27c9 0 18 4 22 10V5h17v89H52V84c-4 6-11 11-22 11C13 95 0 81 0 61s13-34 30-34zm5 14c-9 0-18 7-18 20s9 19 18 19 17-7 17-19-8-20-17-20zm49-31c0-6 4-10 10-10s11 4 11 10-5 10-11 10-10-5-10-10zm2 18h16v66H86zm44 0l17 51 17-51h17l-24 66h-21l-24-66zm90 67c-19 0-33-13-33-34s13-34 33-34c19 0 33 13 33 32a39 39 0 01-1 7h-48c0 10 7 15 16 15 7 0 11-3 13-8h18c-4 12-15 22-31 22zm-16-40h31c0-9-7-15-16-15-8 0-14 5-15 15zm78 39h-17V28h17v10c4-7 12-12 20-11v17h-4c-10 0-16 4-16 17zm57 1c-17 0-28-10-29-22h17c0 5 5 9 12 9 6 0 10-3 10-7 0-12-38-4-38-29 0-11 10-19 27-19 16 0 25 8 26 21h-16c0-5-4-8-11-8-6 0-9 2-9 6 0 12 37 5 37 29 0 12-10 20-26 20zm38-85c0-6 4-10 10-10s11 4 11 10-5 10-11 10-10-5-10-10zm2 18h17v66h-17zm35 13h-8V28h8v-4c0-16 9-24 28-23v14c-8 0-11 2-11 10v3h12v13h-12v53h-17zm85-13h18l-41 98h-18l15-34-27-64h19l17 46z"/></svg>